<?xml version="1.0" encoding="UTF-8"?>
<svg id="Dimensions" xmlns="http://www.w3.org/2000/svg" viewBox="0 0 24 24">
  <defs>
    <style>
      .cls-1 {
        stroke-width: 1.08px;
      }

      .cls-1, .cls-2 {
        fill: none;
        stroke: #010101;
        stroke-linecap: round;
        stroke-linejoin: round;
      }

      .cls-2 {
        stroke-width: .75px;
      }
    </style>
  </defs>
  <g>
    <polyline class="cls-1" points="17.14 18.43 18.92 12.63 16.86 11.51 12 8.85 7.11 11.52 5.08 12.63 6.86 18.43"/>
    <polyline class="cls-1" points="7.11 11.53 7.11 6.7 16.86 6.7 16.86 11.53"/>
    <polyline class="cls-1" points="8.67 6.68 8.67 5.01 15.33 5.01 15.33 6.68"/>
    <polyline class="cls-1" points="12.88 4.86 12.88 3.25 5.77 2.37 11.09 4.86"/>
  </g>
  <path class="cls-1" d="M1.86,18.43c1.27,0,1.27,1.02,2.53,1.02s1.27-1.02,2.53-1.02,1.27,1.02,2.53,1.02,1.27-1.02,2.53-1.02,1.27,1.02,2.53,1.02,1.27-1.02,2.53-1.02,1.27,1.02,2.53,1.02,1.27-1.02,2.53-1.02"/>
  <path class="cls-1" d="M1.86,20.59c1.27,0,1.27,1.02,2.53,1.02s1.27-1.02,2.53-1.02,1.27,1.02,2.53,1.02,1.27-1.02,2.53-1.02,1.27,1.02,2.53,1.02,1.27-1.02,2.53-1.02,1.27,1.02,2.53,1.02,1.27-1.02,2.53-1.02"/>
  <polyline class="cls-2" points="5.6 2.37 5.6 4.71 6.28 4.71"/>
</svg>