<svg id="my-svg" width="100%" xmlns="http://www.w3.org/2000/svg" xmlns:xlink="http://www.w3.org/1999/xlink" class="erDiagram" style="max-width: 1241.58px; background-color: white;" viewBox="-47.42599868774414 0 1241.578369140625 1025" role="graphics-document document" aria-roledescription="er"><style>#my-svg{font-family:"trebuchet ms",verdana,arial,sans-serif;font-size:16px;fill:#000000;}@keyframes edge-animation-frame{from{stroke-dashoffset:0;}}@keyframes dash{to{stroke-dashoffset:0;}}#my-svg .edge-animation-slow{stroke-dasharray:9,5!important;stroke-dashoffset:900;animation:dash 50s linear infinite;stroke-linecap:round;}#my-svg .edge-animation-fast{stroke-dasharray:9,5!important;stroke-dashoffset:900;animation:dash 20s linear infinite;stroke-linecap:round;}#my-svg .error-icon{fill:#552222;}#my-svg .error-text{fill:#552222;stroke:#552222;}#my-svg .edge-thickness-normal{stroke-width:1px;}#my-svg .edge-thickness-thick{stroke-width:3.5px;}#my-svg .edge-pattern-solid{stroke-dasharray:0;}#my-svg .edge-thickness-invisible{stroke-width:0;fill:none;}#my-svg .edge-pattern-dashed{stroke-dasharray:3;}#my-svg .edge-pattern-dotted{stroke-dasharray:2;}#my-svg .marker{fill:#666;stroke:#666;}#my-svg .marker.cross{stroke:#666;}#my-svg svg{font-family:"trebuchet ms",verdana,arial,sans-serif;font-size:16px;}#my-svg p{margin:0;}#my-svg .entityBox{fill:#eee;stroke:#999;}#my-svg .relationshipLabelBox{fill:hsl(-160, 0%, 93.3333333333%);opacity:0.7;background-color:hsl(-160, 0%, 93.3333333333%);}#my-svg .relationshipLabelBox rect{opacity:0.5;}#my-svg .labelBkg{background-color:rgba(237.9999999999, 237.9999999999, 237.9999999999, 0.5);}#my-svg .edgeLabel .label{fill:#999;font-size:14px;}#my-svg .label{font-family:"trebuchet ms",verdana,arial,sans-serif;color:#000000;}#my-svg .edge-pattern-dashed{stroke-dasharray:8,8;}#my-svg .node rect,#my-svg .node circle,#my-svg .node ellipse,#my-svg .node polygon{fill:#eee;stroke:#999;stroke-width:1px;}#my-svg .relationshipLine{stroke:#666;stroke-width:1;fill:none;}#my-svg .marker{fill:none!important;stroke:#666!important;stroke-width:1;}#my-svg :root{--mermaid-font-family:"trebuchet ms",verdana,arial,sans-serif;}</style><g><defs><marker id="my-svg_er-onlyOneStart" class="marker onlyOne er" refX="0" refY="9" markerWidth="18" markerHeight="18" orient="auto"><path d="M9,0 L9,18 M15,0 L15,18"/></marker></defs><defs><marker id="my-svg_er-onlyOneEnd" class="marker onlyOne er" refX="18" refY="9" markerWidth="18" markerHeight="18" orient="auto"><path d="M3,0 L3,18 M9,0 L9,18"/></marker></defs><defs><marker id="my-svg_er-zeroOrOneStart" class="marker zeroOrOne er" refX="0" refY="9" markerWidth="30" markerHeight="18" orient="auto"><circle fill="white" cx="21" cy="9" r="6"/><path d="M9,0 L9,18"/></marker></defs><defs><marker id="my-svg_er-zeroOrOneEnd" class="marker zeroOrOne er" refX="30" refY="9" markerWidth="30" markerHeight="18" orient="auto"><circle fill="white" cx="9" cy="9" r="6"/><path d="M21,0 L21,18"/></marker></defs><defs><marker id="my-svg_er-oneOrMoreStart" class="marker oneOrMore er" refX="18" refY="18" markerWidth="45" markerHeight="36" orient="auto"><path d="M0,18 Q 18,0 36,18 Q 18,36 0,18 M42,9 L42,27"/></marker></defs><defs><marker id="my-svg_er-oneOrMoreEnd" class="marker oneOrMore er" refX="27" refY="18" markerWidth="45" markerHeight="36" orient="auto"><path d="M3,9 L3,27 M9,18 Q27,0 45,18 Q27,36 9,18"/></marker></defs><defs><marker id="my-svg_er-zeroOrMoreStart" class="marker zeroOrMore er" refX="18" refY="18" markerWidth="57" markerHeight="36" orient="auto"><circle fill="white" cx="48" cy="18" r="6"/><path d="M0,18 Q18,0 36,18 Q18,36 0,18"/></marker></defs><defs><marker id="my-svg_er-zeroOrMoreEnd" class="marker zeroOrMore er" refX="39" refY="18" markerWidth="57" markerHeight="36" orient="auto"><circle fill="white" cx="9" cy="18" r="6"/><path d="M21,18 Q39,0 57,18 Q39,36 21,18"/></marker></defs><g class="root"><g class="clusters"/><g class="edgePaths"><path d="M704.914,56.636L597.095,70.947C489.276,85.258,273.638,113.879,165.819,136.606C58,159.333,58,176.167,58,184.583L58,193" id="id_entity-Analysis-0_entity-Project-5_0" class="edge-thickness-normal edge-pattern-solid relationshipLine" style="undefined;;;undefined" data-edge="true" data-et="edge" data-id="id_entity-Analysis-0_entity-Project-5_0" data-points="W3sieCI6NzA0LjkxNDA2MjUsInkiOjU2LjYzNjM5OTMwNDk3MTd9LHsieCI6NTgsInkiOjE0Mi41fSx7IngiOjU4LCJ5IjoxOTN9XQ==" marker-start="url(#my-svg_er-zeroOrOneStart)" marker-end="url(#my-svg_er-onlyOneEnd)"/><path d="M713.831,92L705.598,100.417C697.365,108.833,680.899,125.667,672.667,149.5C664.434,173.333,664.434,204.167,664.434,235C664.434,265.833,664.434,296.667,664.434,327.5C664.434,358.333,664.434,389.167,664.434,420C664.434,450.833,664.434,481.667,630.076,509.491C595.719,537.315,527.004,562.129,492.646,574.536L458.289,586.944" id="id_entity-Analysis-0_entity-Assay-7_1" class="edge-thickness-normal edge-pattern-solid relationshipLine" style="undefined;;;undefined" data-edge="true" data-et="edge" data-id="id_entity-Analysis-0_entity-Assay-7_1" data-points="W3sieCI6NzEzLjgzMTAzODg1MTM1MTMsInkiOjkyfSx7IngiOjY2NC40MzM1OTM3NSwieSI6MTQyLjV9LHsieCI6NjY0LjQzMzU5Mzc1LCJ5IjoyMzV9LHsieCI6NjY0LjQzMzU5Mzc1LCJ5IjozMjcuNX0seyJ4Ijo2NjQuNDMzNTkzNzUsInkiOjQyMH0seyJ4Ijo2NjQuNDMzNTkzNzUsInkiOjUxMi41fSx7IngiOjQ1OC4yODkwNjI1LCJ5Ijo1ODYuOTQzNzg3ODM5NTA3MX1d" marker-start="url(#my-svg_er-zeroOrOneStart)" marker-end="url(#my-svg_er-onlyOneEnd)"/><path d="M746.709,92L745.065,100.417C743.421,108.833,740.132,125.667,744.725,142.5C749.319,159.333,761.794,176.167,768.031,184.583L774.269,193" id="id_entity-Analysis-0_entity-Occurrence-1_2" class="edge-thickness-normal edge-pattern-solid relationshipLine" style="undefined;;;undefined" data-edge="true" data-et="edge" data-id="id_entity-Analysis-0_entity-Occurrence-1_2" data-points="W3sieCI6NzQ2LjcwOTE2Mzg1MTM1MTQsInkiOjkyfSx7IngiOjczNi44NDM3NSwieSI6MTQyLjV9LHsieCI6Nzc0LjI2ODc3MTExNDg2NDksInkiOjE5M31d" marker-start="url(#my-svg_er-zeroOrMoreStart)" marker-end="url(#my-svg_er-zeroOrMoreEnd)"/><path d="M804.914,87.719L817.017,96.849C829.12,105.979,853.326,124.24,891.287,144.466C929.249,164.692,980.966,186.884,1006.825,197.98L1032.684,209.076" id="id_entity-Analysis-0_entity-Assignment-2_3" class="edge-thickness-normal edge-pattern-solid relationshipLine" style="undefined;;;undefined" data-edge="true" data-et="edge" data-id="id_entity-Analysis-0_entity-Assignment-2_3" data-points="W3sieCI6ODA0LjkxNDA2MjUsInkiOjg3LjcxOTAxODc5NTc5NDg0fSx7IngiOjg3Ny41MzEyNSwieSI6MTQyLjV9LHsieCI6MTAzMi42ODM1OTM3NSwieSI6MjA5LjA3NjE5ODI0MjI3NTk4fV0=" marker-start="url(#my-svg_er-zeroOrMoreStart)" marker-end="url(#my-svg_er-zeroOrMoreEnd)"/><path d="M783.252,277L778.815,285.417C774.378,293.833,765.503,310.667,661.724,333.307C557.944,355.947,359.259,384.394,259.917,398.618L160.574,412.841" id="id_entity-Occurrence-1_entity-Sample-6_4" class="edge-thickness-normal edge-pattern-solid relationshipLine" style="undefined;;;undefined" data-edge="true" data-et="edge" data-id="id_entity-Occurrence-1_entity-Sample-6_4" data-points="W3sieCI6NzgzLjI1MjMwMTUyMDI3MDMsInkiOjI3N30seyJ4Ijo3NTYuNjI4OTA2MjUsInkiOjMyNy41fSx7IngiOjE2MC41NzQyMTg3NSwieSI6NDEyLjg0MTE2MzMxMDk2Mn1d" marker-start="url(#my-svg_er-zeroOrOneStart)" marker-end="url(#my-svg_er-onlyOneEnd)"/><path d="M866.355,196.117L880.366,187.181C894.376,178.245,922.397,160.372,912.157,139.962C901.917,119.552,853.415,96.605,829.165,85.131L804.914,73.657" id="id_entity-Occurrence-1_entity-Analysis-0_5" class="edge-thickness-normal edge-pattern-solid relationshipLine" style="undefined;;;undefined" data-edge="true" data-et="edge" data-id="id_entity-Occurrence-1_entity-Analysis-0_5" data-points="W3sieCI6ODY2LjM1NTQ2ODc1LCJ5IjoxOTYuMTE3NDEwOTc4ODI4ODR9LHsieCI6OTUwLjQxNzk2ODc1LCJ5IjoxNDIuNX0seyJ4Ijo4MDQuOTE0MDYyNSwieSI6NzMuNjU2ODE2MzIwMDA2Mzl9XQ==" marker-start="url(#my-svg_er-zeroOrOneStart)" marker-end="url(#my-svg_er-onlyOneEnd)"/><path d="M822.45,277L825.868,285.417C829.286,293.833,836.121,310.667,843.396,327.5C850.67,344.333,858.383,361.167,862.239,369.583L866.096,378" id="id_entity-Occurrence-1_entity-Feature-3_6" class="edge-thickness-normal edge-pattern-solid relationshipLine" style="undefined;;;undefined" data-edge="true" data-et="edge" data-id="id_entity-Occurrence-1_entity-Feature-3_6" data-points="W3sieCI6ODIyLjQ0OTkzNjY1NTQwNTQsInkiOjI3N30seyJ4Ijo4NDIuOTU3MDMxMjUsInkiOjMyNy41fSx7IngiOjg2Ni4wOTU3NTU5MTIxNjIyLCJ5IjozNzh9XQ==" marker-start="url(#my-svg_er-zeroOrOneStart)" marker-end="url(#my-svg_er-onlyOneEnd)"/><path d="M1119.078,193L1124.284,184.583C1129.491,176.167,1139.904,159.333,1087.543,137.449C1035.182,115.566,920.048,88.631,862.481,75.164L804.914,61.697" id="id_entity-Assignment-2_entity-Analysis-0_7" class="edge-thickness-normal edge-pattern-solid relationshipLine" style="undefined;;;undefined" data-edge="true" data-et="edge" data-id="id_entity-Assignment-2_entity-Analysis-0_7" data-points="W3sieCI6MTExOS4wNzgwNjE2NTU0MDU1LCJ5IjoxOTN9LHsieCI6MTE1MC4zMTY0MDYyNSwieSI6MTQyLjV9LHsieCI6ODA0LjkxNDA2MjUsInkiOjYxLjY5Njk0NjM0NjE4NjE0NX1d" marker-start="url(#my-svg_er-zeroOrOneStart)" marker-end="url(#my-svg_er-onlyOneEnd)"/><path d="M1033.719,277L1021.82,285.417C1009.921,293.833,986.123,310.667,967.219,327.5C948.314,344.333,934.305,361.167,927.3,369.583L920.295,378" id="id_entity-Assignment-2_entity-Feature-3_8" class="edge-thickness-normal edge-pattern-solid relationshipLine" style="undefined;;;undefined" data-edge="true" data-et="edge" data-id="id_entity-Assignment-2_entity-Feature-3_8" data-points="W3sieCI6MTAzMy43MTk0NDY3OTA1NDA2LCJ5IjoyNzd9LHsieCI6OTYyLjMyNDIxODc1LCJ5IjozMjcuNX0seyJ4Ijo5MjAuMjk0OTExMzE3NTY3NSwieSI6Mzc4fV0=" marker-start="url(#my-svg_er-zeroOrOneStart)" marker-end="url(#my-svg_er-onlyOneEnd)"/><path d="M1110.192,277L1113.618,285.417C1117.043,293.833,1123.895,310.667,1127.32,327.5C1130.746,344.333,1130.746,361.167,1130.746,369.583L1130.746,378" id="id_entity-Assignment-2_entity-Taxonomy-4_9" class="edge-thickness-normal edge-pattern-solid relationshipLine" style="undefined;;;undefined" data-edge="true" data-et="edge" data-id="id_entity-Assignment-2_entity-Taxonomy-4_9" data-points="W3sieCI6MTExMC4xOTIwODE5MjU2NzU3LCJ5IjoyNzd9LHsieCI6MTEzMC43NDYwOTM3NSwieSI6MzI3LjV9LHsieCI6MTEzMC43NDYwOTM3NSwieSI6Mzc4fV0=" marker-start="url(#my-svg_er-zeroOrOneStart)" marker-end="url(#my-svg_er-onlyOneEnd)"/><path d="M8,274.387L-3.238,283.239C-14.475,292.091,-36.951,309.796,-28.188,329.53C-19.426,349.265,20.574,371.029,40.574,381.912L60.574,392.794" id="id_entity-Project-5_entity-Sample-6_10" class="edge-thickness-normal edge-pattern-solid relationshipLine" style="undefined;;;undefined" data-edge="true" data-et="edge" data-id="id_entity-Project-5_entity-Sample-6_10" data-points="W3sieCI6OCwieSI6Mjc0LjM4NjU4MDYxOTQwNzJ9LHsieCI6LTU5LjQyNTc4MTI1LCJ5IjozMjcuNX0seyJ4Ijo2MC41NzQyMTg3NSwieSI6MzkyLjc5NDExNzY0NzA1ODg0fV0=" marker-start="url(#my-svg_er-zeroOrMoreStart)" marker-end="url(#my-svg_er-zeroOrMoreEnd)"/><path d="M13.763,277L4.899,285.417C-3.966,293.833,-21.696,310.667,-30.561,334.5C-39.426,358.333,-39.426,389.167,-39.426,420C-39.426,450.833,-39.426,481.667,-39.426,512.5C-39.426,543.333,-39.426,574.167,-39.426,605C-39.426,635.833,-39.426,666.667,7.681,694.975C54.788,723.283,149.001,749.067,196.108,761.958L243.215,774.85" id="id_entity-Project-5_entity-AssayPrep-8_11" class="edge-thickness-normal edge-pattern-solid relationshipLine" style="undefined;;;undefined" data-edge="true" data-et="edge" data-id="id_entity-Project-5_entity-AssayPrep-8_11" data-points="W3sieCI6MTMuNzYzNDI5MDU0MDU0MDU4LCJ5IjoyNzd9LHsieCI6LTM5LjQyNTc4MTI1LCJ5IjozMjcuNX0seyJ4IjotMzkuNDI1NzgxMjUsInkiOjQyMH0seyJ4IjotMzkuNDI1NzgxMjUsInkiOjUxMi41fSx7IngiOi0zOS40MjU3ODEyNSwieSI6NjA1fSx7IngiOi0zOS40MjU3ODEyNSwieSI6Njk3LjV9LHsieCI6MjQzLjIxNDg0Mzc1LCJ5Ijo3NzQuODQ5ODc1MTg0OTExM31d" marker-start="url(#my-svg_er-zeroOrMoreStart)" marker-end="url(#my-svg_er-zeroOrMoreEnd)"/><path d="M22.845,277L15.799,285.417C8.754,293.833,-5.336,310.667,-12.381,334.5C-19.426,358.333,-19.426,389.167,-19.426,420C-19.426,450.833,-19.426,481.667,-19.426,512.5C-19.426,543.333,-19.426,574.167,-19.426,605C-19.426,635.833,-19.426,666.667,-19.426,697.5C-19.426,728.333,-19.426,759.167,-19.426,790C-19.426,820.833,-19.426,851.667,16.479,879.596C52.383,907.525,124.191,932.55,160.096,945.063L196,957.575" id="id_entity-Project-5_entity-Library-9_12" class="edge-thickness-normal edge-pattern-solid relationshipLine" style="undefined;;;undefined" data-edge="true" data-et="edge" data-id="id_entity-Project-5_entity-Library-9_12" data-points="W3sieCI6MjIuODQ0NTEwMTM1MTM1MTQsInkiOjI3N30seyJ4IjotMTkuNDI1NzgxMjUsInkiOjMyNy41fSx7IngiOi0xOS40MjU3ODEyNSwieSI6NDIwfSx7IngiOi0xOS40MjU3ODEyNSwieSI6NTEyLjV9LHsieCI6LTE5LjQyNTc4MTI1LCJ5Ijo2MDV9LHsieCI6LTE5LjQyNTc4MTI1LCJ5Ijo2OTcuNX0seyJ4IjotMTkuNDI1NzgxMjUsInkiOjc5MH0seyJ4IjotMTkuNDI1NzgxMjUsInkiOjg4Mi41fSx7IngiOjE5NiwieSI6OTU3LjU3NTE2NjY2OTExOTV9XQ==" marker-start="url(#my-svg_er-zeroOrMoreStart)" marker-end="url(#my-svg_er-zeroOrMoreEnd)"/><path d="M110.574,378L110.574,369.583C110.574,361.167,110.574,344.333,105.79,327.5C101.007,310.667,91.439,293.833,86.655,285.417L81.872,277" id="id_entity-Sample-6_entity-Project-5_13" class="edge-thickness-normal edge-pattern-solid relationshipLine" style="undefined;;;undefined" data-edge="true" data-et="edge" data-id="id_entity-Sample-6_entity-Project-5_13" data-points="W3sieCI6MTEwLjU3NDIxODc1LCJ5IjozNzh9LHsieCI6MTEwLjU3NDIxODc1LCJ5IjozMjcuNX0seyJ4Ijo4MS44NzE1MzcxNjIxNjIxNiwieSI6Mjc3fV0=" marker-start="url(#my-svg_er-zeroOrOneStart)" marker-end="url(#my-svg_er-onlyOneEnd)"/><path d="M86.703,462L81.919,470.417C77.135,478.833,67.568,495.667,112.832,517.299C158.096,538.932,258.193,565.364,308.241,578.581L358.289,591.797" id="id_entity-Sample-6_entity-Assay-7_14" class="edge-thickness-normal edge-pattern-solid relationshipLine" style="undefined;;;undefined" data-edge="true" data-et="edge" data-id="id_entity-Sample-6_entity-Assay-7_14" data-points="W3sieCI6ODYuNzAyNjgxNTg3ODM3ODQsInkiOjQ2Mn0seyJ4Ijo1OCwieSI6NTEyLjV9LHsieCI6MzU4LjI4OTA2MjUsInkiOjU5MS43OTY2MTg4NjM4ODQ4fV0=" marker-start="url(#my-svg_er-zeroOrMoreStart)" marker-end="url(#my-svg_er-zeroOrMoreEnd)"/><path d="M115.115,462L116.025,470.417C116.935,478.833,118.754,495.667,119.664,519.5C120.574,543.333,120.574,574.167,120.574,605C120.574,635.833,120.574,666.667,120.574,697.5C120.574,728.333,120.574,759.167,120.574,790C120.574,820.833,120.574,851.667,133.145,876.354C145.716,901.042,170.858,919.584,183.429,928.855L196,938.126" id="id_entity-Sample-6_entity-Library-9_15" class="edge-thickness-normal edge-pattern-solid relationshipLine" style="undefined;;;undefined" data-edge="true" data-et="edge" data-id="id_entity-Sample-6_entity-Library-9_15" data-points="W3sieCI6MTE1LjExNDc1OTI5MDU0MDU1LCJ5Ijo0NjJ9LHsieCI6MTIwLjU3NDIxODc1LCJ5Ijo1MTIuNX0seyJ4IjoxMjAuNTc0MjE4NzUsInkiOjYwNX0seyJ4IjoxMjAuNTc0MjE4NzUsInkiOjY5Ny41fSx7IngiOjEyMC41NzQyMTg3NSwieSI6NzkwfSx7IngiOjEyMC41NzQyMTg3NSwieSI6ODgyLjV9LHsieCI6MTk2LCJ5Ijo5MzguMTI1NjAzNDEzMzczM31d" marker-start="url(#my-svg_er-zeroOrMoreStart)" marker-end="url(#my-svg_er-zeroOrMoreEnd)"/><path d="M358.473,647L348.49,655.417C338.506,663.833,318.54,680.667,308.557,697.5C298.574,714.333,298.574,731.167,298.574,739.583L298.574,748" id="id_entity-Assay-7_entity-AssayPrep-8_16" class="edge-thickness-normal edge-pattern-solid relationshipLine" style="undefined;;;undefined" data-edge="true" data-et="edge" data-id="id_entity-Assay-7_entity-AssayPrep-8_16" data-points="W3sieCI6MzU4LjQ3MjU5MjkwNTQwNTQsInkiOjY0N30seyJ4IjoyOTguNTc0MjE4NzUsInkiOjY5Ny41fSx7IngiOjI5OC41NzQyMTg3NSwieSI6NzQ4fV0=" marker-start="url(#my-svg_er-zeroOrMoreStart)" marker-end="url(#my-svg_er-zeroOrMoreEnd)"/><path d="M419.933,647L422.266,655.417C424.6,663.833,429.267,680.667,431.6,704.5C433.934,728.333,433.934,759.167,433.934,790C433.934,820.833,433.934,851.667,410.945,878.398C387.956,905.13,341.978,927.76,318.989,939.075L296,950.39" id="id_entity-Assay-7_entity-Library-9_17" class="edge-thickness-normal edge-pattern-solid relationshipLine" style="undefined;;;undefined" data-edge="true" data-et="edge" data-id="id_entity-Assay-7_entity-Library-9_17" data-points="W3sieCI6NDE5LjkzMzA2NTg3ODM3ODQsInkiOjY0N30seyJ4Ijo0MzMuOTMzNTkzNzUsInkiOjY5Ny41fSx7IngiOjQzMy45MzM1OTM3NSwieSI6NzkwfSx7IngiOjQzMy45MzM1OTM3NSwieSI6ODgyLjV9LHsieCI6Mjk2LCJ5Ijo5NTAuMzkwMjQzMzk1NDgxM31d" marker-start="url(#my-svg_er-zeroOrMoreStart)" marker-end="url(#my-svg_er-zeroOrMoreEnd)"/><path d="M353.934,769.292L385.922,757.327C417.91,745.362,481.887,721.431,513.875,694.049C545.863,666.667,545.863,635.833,545.863,605C545.863,574.167,545.863,543.333,545.863,512.5C545.863,481.667,545.863,450.833,545.863,420C545.863,389.167,545.863,358.333,472.886,329.08C399.909,299.827,253.954,272.153,180.977,258.317L108,244.48" id="id_entity-AssayPrep-8_entity-Project-5_18" class="edge-thickness-normal edge-pattern-solid relationshipLine" style="undefined;;;undefined" data-edge="true" data-et="edge" data-id="id_entity-AssayPrep-8_entity-Project-5_18" data-points="W3sieCI6MzUzLjkzMzU5Mzc1LCJ5Ijo3NjkuMjkyNDg0MTI0NzI3NX0seyJ4Ijo1NDUuODYzMjgxMjUsInkiOjY5Ny41fSx7IngiOjU0NS44NjMyODEyNSwieSI6NjA1fSx7IngiOjU0NS44NjMyODEyNSwieSI6NTEyLjV9LHsieCI6NTQ1Ljg2MzI4MTI1LCJ5Ijo0MjB9LHsieCI6NTQ1Ljg2MzI4MTI1LCJ5IjozMjcuNX0seyJ4IjoxMDgsInkiOjI0NC40ODAxMTQ5Nzg0MjE1NH1d" marker-start="url(#my-svg_er-zeroOrOneStart)" marker-end="url(#my-svg_er-onlyOneEnd)"/><path d="M353.934,762.278L375.493,751.481C397.052,740.685,440.171,719.093,454.905,699.88C469.64,680.667,455.992,663.833,449.167,655.417L442.343,647" id="id_entity-AssayPrep-8_entity-Assay-7_19" class="edge-thickness-normal edge-pattern-solid relationshipLine" style="undefined;;;undefined" data-edge="true" data-et="edge" data-id="id_entity-AssayPrep-8_entity-Assay-7_19" data-points="W3sieCI6MzUzLjkzMzU5Mzc1LCJ5Ijo3NjIuMjc3NTgxNTc2MzMxN30seyJ4Ijo0ODMuMjg5MDYyNSwieSI6Njk3LjV9LHsieCI6NDQyLjM0MzExNjU1NDA1NDA2LCJ5Ijo2NDd9XQ==" marker-start="url(#my-svg_er-zeroOrOneStart)" marker-end="url(#my-svg_er-onlyOneEnd)"/><path d="M273.486,832L268.458,840.417C263.431,848.833,253.376,865.667,248.592,882.5C243.808,899.333,244.296,916.167,244.539,924.583L244.783,933" id="id_entity-AssayPrep-8_entity-Library-9_20" class="edge-thickness-normal edge-pattern-solid relationshipLine" style="undefined;;;undefined" data-edge="true" data-et="edge" data-id="id_entity-AssayPrep-8_entity-Library-9_20" data-points="W3sieCI6MjczLjQ4NTk1ODYxNDg2NDg0LCJ5Ijo4MzJ9LHsieCI6MjQzLjMyMDMxMjUsInkiOjg4Mi41fSx7IngiOjI0NC43ODMyNzcwMjcwMjcwMywieSI6OTMzfV0=" marker-start="url(#my-svg_er-zeroOrMoreStart)" marker-end="url(#my-svg_er-zeroOrMoreEnd)"/><path d="M296,961.498L344.757,948.332C393.514,935.165,491.029,908.833,539.786,880.25C588.543,851.667,588.543,820.833,588.543,790C588.543,759.167,588.543,728.333,588.543,697.5C588.543,666.667,588.543,635.833,588.543,605C588.543,574.167,588.543,543.333,588.543,512.5C588.543,481.667,588.543,450.833,588.543,420C588.543,389.167,588.543,358.333,508.452,328.953C428.362,299.572,268.181,271.645,188.09,257.681L108,243.717" id="id_entity-Library-9_entity-Project-5_21" class="edge-thickness-normal edge-pattern-solid relationshipLine" style="undefined;;;undefined" data-edge="true" data-et="edge" data-id="id_entity-Library-9_entity-Project-5_21" data-points="W3sieCI6Mjk2LCJ5Ijo5NjEuNDk4MDQ0MjY5MDgxMn0seyJ4Ijo1ODguNTQyOTY4NzUsInkiOjg4Mi41fSx7IngiOjU4OC41NDI5Njg3NSwieSI6NzkwfSx7IngiOjU4OC41NDI5Njg3NSwieSI6Njk3LjV9LHsieCI6NTg4LjU0Mjk2ODc1LCJ5Ijo2MDV9LHsieCI6NTg4LjU0Mjk2ODc1LCJ5Ijo1MTIuNX0seyJ4Ijo1ODguNTQyOTY4NzUsInkiOjQyMH0seyJ4Ijo1ODguNTQyOTY4NzUsInkiOjMyNy41fSx7IngiOjEwOCwieSI6MjQzLjcxNzQ4NDI5ODk1Njd9XQ==" marker-start="url(#my-svg_er-zeroOrOneStart)" marker-end="url(#my-svg_er-onlyOneEnd)"/><path d="M208.411,933L200.878,924.583C193.346,916.167,178.28,899.333,170.748,875.5C163.215,851.667,163.215,820.833,163.215,790C163.215,759.167,163.215,728.333,163.215,697.5C163.215,666.667,163.215,635.833,163.215,605C163.215,574.167,163.215,543.333,158.425,519.5C153.635,495.667,144.056,478.833,139.266,470.417L134.476,462" id="id_entity-Library-9_entity-Sample-6_22" class="edge-thickness-normal edge-pattern-solid relationshipLine" style="undefined;;;undefined" data-edge="true" data-et="edge" data-id="id_entity-Library-9_entity-Sample-6_22" data-points="W3sieCI6MjA4LjQxMTA2NDE4OTE4OTE4LCJ5Ijo5MzN9LHsieCI6MTYzLjIxNDg0Mzc1LCJ5Ijo4ODIuNX0seyJ4IjoxNjMuMjE0ODQzNzUsInkiOjc5MH0seyJ4IjoxNjMuMjE0ODQzNzUsInkiOjY5Ny41fSx7IngiOjE2My4yMTQ4NDM3NSwieSI6NjA1fSx7IngiOjE2My4yMTQ4NDM3NSwieSI6NTEyLjV9LHsieCI6MTM0LjQ3NTkwNzkzOTE4OTIsInkiOjQ2Mn1d" marker-start="url(#my-svg_er-zeroOrOneStart)" marker-end="url(#my-svg_er-onlyOneEnd)"/><path d="M296,958.134L333.37,945.528C370.74,932.923,445.479,907.711,482.849,879.689C520.219,851.667,520.219,820.833,520.219,790C520.219,759.167,520.219,728.333,509.897,704.387C499.576,680.44,478.932,663.38,468.611,654.85L458.289,646.321" id="id_entity-Library-9_entity-Assay-7_23" class="edge-thickness-normal edge-pattern-solid relationshipLine" style="undefined;;;undefined" data-edge="true" data-et="edge" data-id="id_entity-Library-9_entity-Assay-7_23" data-points="W3sieCI6Mjk2LCJ5Ijo5NTguMTMzOTAzMTMzOTAzMX0seyJ4Ijo1MjAuMjE4NzUsInkiOjg4Mi41fSx7IngiOjUyMC4yMTg3NSwieSI6NzkwfSx7IngiOjUyMC4yMTg3NSwieSI6Njk3LjV9LHsieCI6NDU4LjI4OTA2MjUsInkiOjY0Ni4zMjA1ODM1MTM2NDU2fV0=" marker-start="url(#my-svg_er-zeroOrOneStart)" marker-end="url(#my-svg_er-onlyOneEnd)"/><path d="M290.137,933L298.982,924.583C307.827,916.167,325.517,899.333,330.301,882.5C335.085,865.667,326.962,848.833,322.901,840.417L318.84,832" id="id_entity-Library-9_entity-AssayPrep-8_24" class="edge-thickness-normal edge-pattern-solid relationshipLine" style="undefined;;;undefined" data-edge="true" data-et="edge" data-id="id_entity-Library-9_entity-AssayPrep-8_24" data-points="W3sieCI6MjkwLjEzNzI0NjYyMTYyMTYsInkiOjkzM30seyJ4IjozNDMuMjA3MDMxMjUsInkiOjg4Mi41fSx7IngiOjMxOC44Mzk5MjgyMDk0NTk0NiwieSI6ODMyfV0=" marker-start="url(#my-svg_er-zeroOrOneStart)" marker-end="url(#my-svg_er-onlyOneEnd)"/></g><g class="edgeLabels"><g class="edgeLabel" transform="translate(58, 142.5)"><g class="label" data-id="id_entity-Analysis-0_entity-Project-5_0" transform="translate(-22.6796875, -10.5)"><foreignObject width="45.359375" height="21"><div xmlns="http://www.w3.org/1999/xhtml" class="labelBkg" style="display: table-cell; white-space: nowrap; line-height: 1.5; max-width: 200px; text-align: center;"><span class="edgeLabel"><p>Project</p></span></div></foreignObject></g></g><g class="edgeLabel" transform="translate(664.43359375, 327.5)"><g class="label" data-id="id_entity-Analysis-0_entity-Assay-7_1" transform="translate(-16.9296875, -10.5)"><foreignObject width="33.859375" height="21"><div xmlns="http://www.w3.org/1999/xhtml" class="labelBkg" style="display: table-cell; white-space: nowrap; line-height: 1.5; max-width: 200px; text-align: center;"><span class="edgeLabel"><p>Assay</p></span></div></foreignObject></g></g><g class="edgeLabel"><g class="label" data-id="id_entity-Analysis-0_entity-Occurrence-1_2" transform="translate(0, 0)"><foreignObject width="0" height="0"><div xmlns="http://www.w3.org/1999/xhtml" class="labelBkg" style="display: table-cell; white-space: nowrap; line-height: 1.5; max-width: 200px; text-align: center;"><span class="edgeLabel"></span></div></foreignObject></g></g><g class="edgeLabel"><g class="label" data-id="id_entity-Analysis-0_entity-Assignment-2_3" transform="translate(0, 0)"><foreignObject width="0" height="0"><div xmlns="http://www.w3.org/1999/xhtml" class="labelBkg" style="display: table-cell; white-space: nowrap; line-height: 1.5; max-width: 200px; text-align: center;"><span class="edgeLabel"></span></div></foreignObject></g></g><g class="edgeLabel" transform="translate(486.85748, 366.12499)"><g class="label" data-id="id_entity-Occurrence-1_entity-Sample-6_4" transform="translate(-22.640625, -10.5)"><foreignObject width="45.28125" height="21"><div xmlns="http://www.w3.org/1999/xhtml" class="labelBkg" style="display: table-cell; white-space: nowrap; line-height: 1.5; max-width: 200px; text-align: center;"><span class="edgeLabel"><p>Sample</p></span></div></foreignObject></g></g><g class="edgeLabel" transform="translate(922.72971, 129.39968)"><g class="label" data-id="id_entity-Occurrence-1_entity-Analysis-0_5" transform="translate(-24.8125, -10.5)"><foreignObject width="49.625" height="21"><div xmlns="http://www.w3.org/1999/xhtml" class="labelBkg" style="display: table-cell; white-space: nowrap; line-height: 1.5; max-width: 200px; text-align: center;"><span class="edgeLabel"><p>Analysis</p></span></div></foreignObject></g></g><g class="edgeLabel" transform="translate(842.95703125, 327.5)"><g class="label" data-id="id_entity-Occurrence-1_entity-Feature-3_6" transform="translate(-24.3125, -10.5)"><foreignObject width="48.625" height="21"><div xmlns="http://www.w3.org/1999/xhtml" class="labelBkg" style="display: table-cell; white-space: nowrap; line-height: 1.5; max-width: 200px; text-align: center;"><span class="edgeLabel"><p>Feature</p></span></div></foreignObject></g></g><g class="edgeLabel" transform="translate(1006.52511, 108.86162)"><g class="label" data-id="id_entity-Assignment-2_entity-Analysis-0_7" transform="translate(-24.8125, -10.5)"><foreignObject width="49.625" height="21"><div xmlns="http://www.w3.org/1999/xhtml" class="labelBkg" style="display: table-cell; white-space: nowrap; line-height: 1.5; max-width: 200px; text-align: center;"><span class="edgeLabel"><p>Analysis</p></span></div></foreignObject></g></g><g class="edgeLabel" transform="translate(962.32421875, 327.5)"><g class="label" data-id="id_entity-Assignment-2_entity-Feature-3_8" transform="translate(-24.3125, -10.5)"><foreignObject width="48.625" height="21"><div xmlns="http://www.w3.org/1999/xhtml" class="labelBkg" style="display: table-cell; white-space: nowrap; line-height: 1.5; max-width: 200px; text-align: center;"><span class="edgeLabel"><p>Feature</p></span></div></foreignObject></g></g><g class="edgeLabel" transform="translate(1130.74609375, 327.5)"><g class="label" data-id="id_entity-Assignment-2_entity-Taxonomy-4_9" transform="translate(-30.984375, -10.5)"><foreignObject width="61.96875" height="21"><div xmlns="http://www.w3.org/1999/xhtml" class="labelBkg" style="display: table-cell; white-space: nowrap; line-height: 1.5; max-width: 200px; text-align: center;"><span class="edgeLabel"><p>Taxonomy</p></span></div></foreignObject></g></g><g class="edgeLabel"><g class="label" data-id="id_entity-Project-5_entity-Sample-6_10" transform="translate(0, 0)"><foreignObject width="0" height="0"><div xmlns="http://www.w3.org/1999/xhtml" class="labelBkg" style="display: table-cell; white-space: nowrap; line-height: 1.5; max-width: 200px; text-align: center;"><span class="edgeLabel"></span></div></foreignObject></g></g><g class="edgeLabel"><g class="label" data-id="id_entity-Project-5_entity-AssayPrep-8_11" transform="translate(0, 0)"><foreignObject width="0" height="0"><div xmlns="http://www.w3.org/1999/xhtml" class="labelBkg" style="display: table-cell; white-space: nowrap; line-height: 1.5; max-width: 200px; text-align: center;"><span class="edgeLabel"></span></div></foreignObject></g></g><g class="edgeLabel"><g class="label" data-id="id_entity-Project-5_entity-Library-9_12" transform="translate(0, 0)"><foreignObject width="0" height="0"><div xmlns="http://www.w3.org/1999/xhtml" class="labelBkg" style="display: table-cell; white-space: nowrap; line-height: 1.5; max-width: 200px; text-align: center;"><span class="edgeLabel"></span></div></foreignObject></g></g><g class="edgeLabel" transform="translate(110.57421875, 327.5)"><g class="label" data-id="id_entity-Sample-6_entity-Project-5_13" transform="translate(-22.6796875, -10.5)"><foreignObject width="45.359375" height="21"><div xmlns="http://www.w3.org/1999/xhtml" class="labelBkg" style="display: table-cell; white-space: nowrap; line-height: 1.5; max-width: 200px; text-align: center;"><span class="edgeLabel"><p>Project</p></span></div></foreignObject></g></g><g class="edgeLabel"><g class="label" data-id="id_entity-Sample-6_entity-Assay-7_14" transform="translate(0, 0)"><foreignObject width="0" height="0"><div xmlns="http://www.w3.org/1999/xhtml" class="labelBkg" style="display: table-cell; white-space: nowrap; line-height: 1.5; max-width: 200px; text-align: center;"><span class="edgeLabel"></span></div></foreignObject></g></g><g class="edgeLabel"><g class="label" data-id="id_entity-Sample-6_entity-Library-9_15" transform="translate(0, 0)"><foreignObject width="0" height="0"><div xmlns="http://www.w3.org/1999/xhtml" class="labelBkg" style="display: table-cell; white-space: nowrap; line-height: 1.5; max-width: 200px; text-align: center;"><span class="edgeLabel"></span></div></foreignObject></g></g><g class="edgeLabel"><g class="label" data-id="id_entity-Assay-7_entity-AssayPrep-8_16" transform="translate(0, 0)"><foreignObject width="0" height="0"><div xmlns="http://www.w3.org/1999/xhtml" class="labelBkg" style="display: table-cell; white-space: nowrap; line-height: 1.5; max-width: 200px; text-align: center;"><span class="edgeLabel"></span></div></foreignObject></g></g><g class="edgeLabel"><g class="label" data-id="id_entity-Assay-7_entity-Library-9_17" transform="translate(0, 0)"><foreignObject width="0" height="0"><div xmlns="http://www.w3.org/1999/xhtml" class="labelBkg" style="display: table-cell; white-space: nowrap; line-height: 1.5; max-width: 200px; text-align: center;"><span class="edgeLabel"></span></div></foreignObject></g></g><g class="edgeLabel" transform="translate(545.86328125, 512.5)"><g class="label" data-id="id_entity-AssayPrep-8_entity-Project-5_18" transform="translate(-22.6796875, -10.5)"><foreignObject width="45.359375" height="21"><div xmlns="http://www.w3.org/1999/xhtml" class="labelBkg" style="display: table-cell; white-space: nowrap; line-height: 1.5; max-width: 200px; text-align: center;"><span class="edgeLabel"><p>Project</p></span></div></foreignObject></g></g><g class="edgeLabel" transform="translate(447.67749, 715.33327)"><g class="label" data-id="id_entity-AssayPrep-8_entity-Assay-7_19" transform="translate(-16.9296875, -10.5)"><foreignObject width="33.859375" height="21"><div xmlns="http://www.w3.org/1999/xhtml" class="labelBkg" style="display: table-cell; white-space: nowrap; line-height: 1.5; max-width: 200px; text-align: center;"><span class="edgeLabel"><p>Assay</p></span></div></foreignObject></g></g><g class="edgeLabel"><g class="label" data-id="id_entity-AssayPrep-8_entity-Library-9_20" transform="translate(0, 0)"><foreignObject width="0" height="0"><div xmlns="http://www.w3.org/1999/xhtml" class="labelBkg" style="display: table-cell; white-space: nowrap; line-height: 1.5; max-width: 200px; text-align: center;"><span class="edgeLabel"></span></div></foreignObject></g></g><g class="edgeLabel" transform="translate(588.54296875, 605)"><g class="label" data-id="id_entity-Library-9_entity-Project-5_21" transform="translate(-22.6796875, -10.5)"><foreignObject width="45.359375" height="21"><div xmlns="http://www.w3.org/1999/xhtml" class="labelBkg" style="display: table-cell; white-space: nowrap; line-height: 1.5; max-width: 200px; text-align: center;"><span class="edgeLabel"><p>Project</p></span></div></foreignObject></g></g><g class="edgeLabel" transform="translate(163.21484375, 697.5)"><g class="label" data-id="id_entity-Library-9_entity-Sample-6_22" transform="translate(-22.640625, -10.5)"><foreignObject width="45.28125" height="21"><div xmlns="http://www.w3.org/1999/xhtml" class="labelBkg" style="display: table-cell; white-space: nowrap; line-height: 1.5; max-width: 200px; text-align: center;"><span class="edgeLabel"><p>Sample</p></span></div></foreignObject></g></g><g class="edgeLabel" transform="translate(520.21875, 790)"><g class="label" data-id="id_entity-Library-9_entity-Assay-7_23" transform="translate(-16.9296875, -10.5)"><foreignObject width="33.859375" height="21"><div xmlns="http://www.w3.org/1999/xhtml" class="labelBkg" style="display: table-cell; white-space: nowrap; line-height: 1.5; max-width: 200px; text-align: center;"><span class="edgeLabel"><p>Assay</p></span></div></foreignObject></g></g><g class="edgeLabel" transform="translate(343.20703125, 882.5)"><g class="label" data-id="id_entity-Library-9_entity-AssayPrep-8_24" transform="translate(-30.9453125, -10.5)"><foreignObject width="61.890625" height="21"><div xmlns="http://www.w3.org/1999/xhtml" class="labelBkg" style="display: table-cell; white-space: nowrap; line-height: 1.5; max-width: 200px; text-align: center;"><span class="edgeLabel"><p>AssayPrep</p></span></div></foreignObject></g></g></g><g class="nodes"><g class="node default" id="entity-Analysis-0" transform="translate(754.9140625, 50)"><rect class="basic label-container" style="" x="-50" y="-42" width="100" height="84"/><g class="label" style="" transform="translate(-28.359375, -12)"><rect/><foreignObject width="56.71875" height="24"><div xmlns="http://www.w3.org/1999/xhtml" style="display: table-cell; white-space: nowrap; line-height: 1.5; max-width: 100px; text-align: center;"><span class="nodeLabel"><p>Analysis</p></span></div></foreignObject></g></g><g class="node default" id="entity-Occurrence-1" transform="translate(805.39453125, 235)"><rect class="basic label-container" style="" x="-60.9609375" y="-42" width="121.921875" height="84"/><g class="label" style="" transform="translate(-40.9609375, -12)"><rect/><foreignObject width="81.921875" height="24"><div xmlns="http://www.w3.org/1999/xhtml" style="display: table-cell; white-space: nowrap; line-height: 1.5; max-width: 200px; text-align: center;"><span class="nodeLabel"><p>Occurrence</p></span></div></foreignObject></g></g><g class="node default" id="entity-Assignment-2" transform="translate(1093.09765625, 235)"><rect class="basic label-container" style="" x="-60.4140625" y="-42" width="120.828125" height="84"/><g class="label" style="" transform="translate(-40.4140625, -12)"><rect/><foreignObject width="80.828125" height="24"><div xmlns="http://www.w3.org/1999/xhtml" style="display: table-cell; white-space: nowrap; line-height: 1.5; max-width: 200px; text-align: center;"><span class="nodeLabel"><p>Assignment</p></span></div></foreignObject></g></g><g class="node default" id="entity-Feature-3" transform="translate(885.33984375, 420)"><rect class="basic label-container" style="" x="-50" y="-42" width="100" height="84"/><g class="label" style="" transform="translate(-27.78125, -12)"><rect/><foreignObject width="55.5625" height="24"><div xmlns="http://www.w3.org/1999/xhtml" style="display: table-cell; white-space: nowrap; line-height: 1.5; max-width: 100px; text-align: center;"><span class="nodeLabel"><p>Feature</p></span></div></foreignObject></g></g><g class="node default" id="entity-Taxonomy-4" transform="translate(1130.74609375, 420)"><rect class="basic label-container" style="" x="-55.40625" y="-42" width="110.8125" height="84"/><g class="label" style="" transform="translate(-35.40625, -12)"><rect/><foreignObject width="70.8125" height="24"><div xmlns="http://www.w3.org/1999/xhtml" style="display: table-cell; white-space: nowrap; line-height: 1.5; max-width: 200px; text-align: center;"><span class="nodeLabel"><p>Taxonomy</p></span></div></foreignObject></g></g><g class="node default" id="entity-Project-5" transform="translate(58, 235)"><rect class="basic label-container" style="" x="-50" y="-42" width="100" height="84"/><g class="label" style="" transform="translate(-25.921875, -12)"><rect/><foreignObject width="51.84375" height="24"><div xmlns="http://www.w3.org/1999/xhtml" style="display: table-cell; white-space: nowrap; line-height: 1.5; max-width: 100px; text-align: center;"><span class="nodeLabel"><p>Project</p></span></div></foreignObject></g></g><g class="node default" id="entity-Sample-6" transform="translate(110.57421875, 420)"><rect class="basic label-container" style="" x="-50" y="-42" width="100" height="84"/><g class="label" style="" transform="translate(-25.875, -12)"><rect/><foreignObject width="51.75" height="24"><div xmlns="http://www.w3.org/1999/xhtml" style="display: table-cell; white-space: nowrap; line-height: 1.5; max-width: 100px; text-align: center;"><span class="nodeLabel"><p>Sample</p></span></div></foreignObject></g></g><g class="node default" id="entity-Assay-7" transform="translate(408.2890625, 605)"><rect class="basic label-container" style="" x="-50" y="-42" width="100" height="84"/><g class="label" style="" transform="translate(-19.34375, -12)"><rect/><foreignObject width="38.6875" height="24"><div xmlns="http://www.w3.org/1999/xhtml" style="display: table-cell; white-space: nowrap; line-height: 1.5; max-width: 100px; text-align: center;"><span class="nodeLabel"><p>Assay</p></span></div></foreignObject></g></g><g class="node default" id="entity-AssayPrep-8" transform="translate(298.57421875, 790)"><rect class="basic label-container" style="" x="-55.359375" y="-42" width="110.71875" height="84"/><g class="label" style="" transform="translate(-35.359375, -12)"><rect/><foreignObject width="70.71875" height="24"><div xmlns="http://www.w3.org/1999/xhtml" style="display: table-cell; white-space: nowrap; line-height: 1.5; max-width: 200px; text-align: center;"><span class="nodeLabel"><p>AssayPrep</p></span></div></foreignObject></g></g><g class="node default" id="entity-Library-9" transform="translate(246, 975)"><rect class="basic label-container" style="" x="-50" y="-42" width="100" height="84"/><g class="label" style="" transform="translate(-25.15625, -12)"><rect/><foreignObject width="50.3125" height="24"><div xmlns="http://www.w3.org/1999/xhtml" style="display: table-cell; white-space: nowrap; line-height: 1.5; max-width: 100px; text-align: center;"><span class="nodeLabel"><p>Library</p></span></div></foreignObject></g></g></g></g></g></svg>