<svg id="my-svg" width="100%" xmlns="http://www.w3.org/2000/svg" xmlns:xlink="http://www.w3.org/1999/xlink" class="erDiagram" style="max-width: 1512.04px; background-color: white;" viewBox="-80 0 1512.0390625 1025" role="graphics-document document" aria-roledescription="er"><style>#my-svg{font-family:"trebuchet ms",verdana,arial,sans-serif;font-size:16px;fill:#000000;}@keyframes edge-animation-frame{from{stroke-dashoffset:0;}}@keyframes dash{to{stroke-dashoffset:0;}}#my-svg .edge-animation-slow{stroke-dasharray:9,5!important;stroke-dashoffset:900;animation:dash 50s linear infinite;stroke-linecap:round;}#my-svg .edge-animation-fast{stroke-dasharray:9,5!important;stroke-dashoffset:900;animation:dash 20s linear infinite;stroke-linecap:round;}#my-svg .error-icon{fill:#552222;}#my-svg .error-text{fill:#552222;stroke:#552222;}#my-svg .edge-thickness-normal{stroke-width:1px;}#my-svg .edge-thickness-thick{stroke-width:3.5px;}#my-svg .edge-pattern-solid{stroke-dasharray:0;}#my-svg .edge-thickness-invisible{stroke-width:0;fill:none;}#my-svg .edge-pattern-dashed{stroke-dasharray:3;}#my-svg .edge-pattern-dotted{stroke-dasharray:2;}#my-svg .marker{fill:#666;stroke:#666;}#my-svg .marker.cross{stroke:#666;}#my-svg svg{font-family:"trebuchet ms",verdana,arial,sans-serif;font-size:16px;}#my-svg p{margin:0;}#my-svg .entityBox{fill:#eee;stroke:#999;}#my-svg .relationshipLabelBox{fill:hsl(-160, 0%, 93.3333333333%);opacity:0.7;background-color:hsl(-160, 0%, 93.3333333333%);}#my-svg .relationshipLabelBox rect{opacity:0.5;}#my-svg .labelBkg{background-color:rgba(237.9999999999, 237.9999999999, 237.9999999999, 0.5);}#my-svg .edgeLabel .label{fill:#999;font-size:14px;}#my-svg .label{font-family:"trebuchet ms",verdana,arial,sans-serif;color:#000000;}#my-svg .edge-pattern-dashed{stroke-dasharray:8,8;}#my-svg .node rect,#my-svg .node circle,#my-svg .node ellipse,#my-svg .node polygon{fill:#eee;stroke:#999;stroke-width:1px;}#my-svg .relationshipLine{stroke:#666;stroke-width:1;fill:none;}#my-svg .marker{fill:none!important;stroke:#666!important;stroke-width:1;}#my-svg :root{--mermaid-font-family:"trebuchet ms",verdana,arial,sans-serif;}</style><g><defs><marker id="my-svg_er-onlyOneStart" class="marker onlyOne er" refX="0" refY="9" markerWidth="18" markerHeight="18" orient="auto"><path d="M9,0 L9,18 M15,0 L15,18"/></marker></defs><defs><marker id="my-svg_er-onlyOneEnd" class="marker onlyOne er" refX="18" refY="9" markerWidth="18" markerHeight="18" orient="auto"><path d="M3,0 L3,18 M9,0 L9,18"/></marker></defs><defs><marker id="my-svg_er-zeroOrOneStart" class="marker zeroOrOne er" refX="0" refY="9" markerWidth="30" markerHeight="18" orient="auto"><circle fill="white" cx="21" cy="9" r="6"/><path d="M9,0 L9,18"/></marker></defs><defs><marker id="my-svg_er-zeroOrOneEnd" class="marker zeroOrOne er" refX="30" refY="9" markerWidth="30" markerHeight="18" orient="auto"><circle fill="white" cx="9" cy="9" r="6"/><path d="M21,0 L21,18"/></marker></defs><defs><marker id="my-svg_er-oneOrMoreStart" class="marker oneOrMore er" refX="18" refY="18" markerWidth="45" markerHeight="36" orient="auto"><path d="M0,18 Q 18,0 36,18 Q 18,36 0,18 M42,9 L42,27"/></marker></defs><defs><marker id="my-svg_er-oneOrMoreEnd" class="marker oneOrMore er" refX="27" refY="18" markerWidth="45" markerHeight="36" orient="auto"><path d="M3,9 L3,27 M9,18 Q27,0 45,18 Q27,36 9,18"/></marker></defs><defs><marker id="my-svg_er-zeroOrMoreStart" class="marker zeroOrMore er" refX="18" refY="18" markerWidth="57" markerHeight="36" orient="auto"><circle fill="white" cx="48" cy="18" r="6"/><path d="M0,18 Q18,0 36,18 Q18,36 0,18"/></marker></defs><defs><marker id="my-svg_er-zeroOrMoreEnd" class="marker zeroOrMore er" refX="39" refY="18" markerWidth="57" markerHeight="36" orient="auto"><circle fill="white" cx="9" cy="18" r="6"/><path d="M21,18 Q39,0 57,18 Q39,36 21,18"/></marker></defs><g class="root"><g class="clusters"/><g class="edgePaths"><path d="M979.816,59.465L906.708,73.304C833.599,87.143,687.382,114.822,614.273,137.077C541.164,159.333,541.164,176.167,541.164,184.583L541.164,193" id="id_entity-Analysis-0_entity-Project-6_0" class="edge-thickness-normal edge-pattern-solid relationshipLine" style="undefined;;;undefined" data-edge="true" data-et="edge" data-id="id_entity-Analysis-0_entity-Project-6_0" data-points="W3sieCI6OTc5LjgxNjQwNjI1LCJ5Ijo1OS40NjQ4MDY3NDY4NzIzOH0seyJ4Ijo1NDEuMTY0MDYyNSwieSI6MTQyLjV9LHsieCI6NTQxLjE2NDA2MjUsInkiOjE5M31d" marker-start="url(#my-svg_er-zeroOrOneStart)" marker-end="url(#my-svg_er-onlyOneEnd)"/><path d="M979.816,63.572L931.354,76.727C882.892,89.881,785.967,116.191,737.505,144.762C689.043,173.333,689.043,204.167,689.043,235C689.043,265.833,689.043,296.667,689.043,327.5C689.043,358.333,689.043,389.167,689.043,420C689.043,450.833,689.043,481.667,640.393,510.245C591.743,538.824,494.444,565.148,445.794,578.31L397.145,591.473" id="id_entity-Analysis-0_entity-Assay-8_1" class="edge-thickness-normal edge-pattern-solid relationshipLine" style="undefined;;;undefined" data-edge="true" data-et="edge" data-id="id_entity-Analysis-0_entity-Assay-8_1" data-points="W3sieCI6OTc5LjgxNjQwNjI1LCJ5Ijo2My41NzIwNjcyMTg0MTM5OX0seyJ4Ijo2ODkuMDQyOTY4NzUsInkiOjE0Mi41fSx7IngiOjY4OS4wNDI5Njg3NSwieSI6MjM1fSx7IngiOjY4OS4wNDI5Njg3NSwieSI6MzI3LjV9LHsieCI6Njg5LjA0Mjk2ODc1LCJ5Ijo0MjB9LHsieCI6Njg5LjA0Mjk2ODc1LCJ5Ijo1MTIuNX0seyJ4IjozOTcuMTQ0NTMxMjUsInkiOjU5MS40NzI1OTEwMDE1MzF9XQ==" marker-start="url(#my-svg_er-zeroOrOneStart)" marker-end="url(#my-svg_er-onlyOneEnd)"/><path d="M979.816,70.821L951.128,82.767C922.439,94.714,865.061,118.607,838.403,138.97C811.745,159.333,815.807,176.167,817.838,184.583L819.869,193" id="id_entity-Analysis-0_entity-Occurrence-1_2" class="edge-thickness-normal edge-pattern-solid relationshipLine" style="undefined;;;undefined" data-edge="true" data-et="edge" data-id="id_entity-Analysis-0_entity-Occurrence-1_2" data-points="W3sieCI6OTc5LjgxNjQwNjI1LCJ5Ijo3MC44MjA4NzcxNDk3OTA3M30seyJ4Ijo4MDcuNjgzNTkzNzUsInkiOjE0Mi41fSx7IngiOjgxOS44NjkyNzc4NzE2MjE2LCJ5IjoxOTN9XQ==" marker-start="url(#my-svg_er-zeroOrMoreStart)" marker-end="url(#my-svg_er-zeroOrMoreEnd)"/><path d="M996.066,92L989.302,100.417C982.539,108.833,969.011,125.667,1014.828,147.022C1060.645,168.378,1165.805,194.256,1218.385,207.194L1270.965,220.133" id="id_entity-Analysis-0_entity-Assignment-2_3" class="edge-thickness-normal edge-pattern-solid relationshipLine" style="undefined;;;undefined" data-edge="true" data-et="edge" data-id="id_entity-Analysis-0_entity-Assignment-2_3" data-points="W3sieCI6OTk2LjA2NTY0NjExNDg2NDksInkiOjkyfSx7IngiOjk1NS40ODQzNzUsInkiOjE0Mi41fSx7IngiOjEyNzAuOTY0ODQzNzUsInkiOjIyMC4xMzMzMjc3OTA5OTg1NX1d" marker-start="url(#my-svg_er-zeroOrMoreStart)" marker-end="url(#my-svg_er-zeroOrMoreEnd)"/><path d="M1053.041,92L1057.695,100.417C1062.349,108.833,1071.657,125.667,1076.311,142.5C1080.965,159.333,1080.965,176.167,1080.965,184.583L1080.965,193" id="id_entity-Analysis-0_entity-Tag-5_4" class="edge-thickness-normal edge-pattern-solid relationshipLine" style="undefined;;;undefined" data-edge="true" data-et="edge" data-id="id_entity-Analysis-0_entity-Tag-5_4" data-points="W3sieCI6MTA1My4wNDA1NjE2NTU0MDUzLCJ5Ijo5Mn0seyJ4IjoxMDgwLjk2NDg0Mzc1LCJ5IjoxNDIuNX0seyJ4IjoxMDgwLjk2NDg0Mzc1LCJ5IjoxOTN9XQ==" marker-start="url(#my-svg_er-zeroOrMoreStart)" marker-end="url(#my-svg_er-zeroOrMoreEnd)"/><path d="M806.207,277L801.438,285.417C796.669,293.833,787.131,310.667,782.363,334.5C777.594,358.333,777.594,389.167,777.594,420C777.594,450.833,777.594,481.667,777.594,512.5C777.594,543.333,777.594,574.167,777.594,605C777.594,635.833,777.594,666.667,777.594,697.5C777.594,728.333,777.594,759.167,777.594,790C777.594,820.833,777.594,851.667,709.697,880.815C641.801,909.963,506.008,937.425,438.111,951.157L370.215,964.888" id="id_entity-Occurrence-1_entity-Library-10_5" class="edge-thickness-normal edge-pattern-solid relationshipLine" style="undefined;;;undefined" data-edge="true" data-et="edge" data-id="id_entity-Occurrence-1_entity-Library-10_5" data-points="W3sieCI6ODA2LjIwNjg2MjMzMTA4MTEsInkiOjI3N30seyJ4Ijo3NzcuNTkzNzUsInkiOjMyNy41fSx7IngiOjc3Ny41OTM3NSwieSI6NDIwfSx7IngiOjc3Ny41OTM3NSwieSI6NTEyLjV9LHsieCI6Nzc3LjU5Mzc1LCJ5Ijo2MDV9LHsieCI6Nzc3LjU5Mzc1LCJ5Ijo2OTcuNX0seyJ4Ijo3NzcuNTkzNzUsInkiOjc5MH0seyJ4Ijo3NzcuNTkzNzUsInkiOjg4Mi41fSx7IngiOjM3MC4yMTQ4NDM3NSwieSI6OTY0Ljg4ODAzMzg4ODc1MTJ9XQ==" marker-start="url(#my-svg_er-zeroOrOneStart)" marker-end="url(#my-svg_er-onlyOneEnd)"/><path d="M890.965,219.498L941.432,206.665C991.898,193.832,1092.832,168.166,1124.307,144.618C1155.783,121.07,1117.799,99.64,1098.808,88.925L1079.816,78.21" id="id_entity-Occurrence-1_entity-Analysis-0_6" class="edge-thickness-normal edge-pattern-solid relationshipLine" style="undefined;;;undefined" data-edge="true" data-et="edge" data-id="id_entity-Occurrence-1_entity-Analysis-0_6" data-points="W3sieCI6ODkwLjk2NDg0Mzc1LCJ5IjoyMTkuNDk4NDA1MzM0ODc5NjZ9LHsieCI6MTE5My43NjU2MjUsInkiOjE0Mi41fSx7IngiOjEwNzkuODE2NDA2MjUsInkiOjc4LjIwOTk1NDQ5MjM4NzZ9XQ==" marker-start="url(#my-svg_er-zeroOrOneStart)" marker-end="url(#my-svg_er-onlyOneEnd)"/><path d="M890.965,269.126L908.344,278.855C925.724,288.584,960.483,308.042,980.985,326.188C1001.486,344.333,1007.731,361.167,1010.853,369.583L1013.975,378" id="id_entity-Occurrence-1_entity-Feature-3_7" class="edge-thickness-normal edge-pattern-solid relationshipLine" style="undefined;;;undefined" data-edge="true" data-et="edge" data-id="id_entity-Occurrence-1_entity-Feature-3_7" data-points="W3sieCI6ODkwLjk2NDg0Mzc1LCJ5IjoyNjkuMTI1Nzg4OTg4NDR9LHsieCI6OTk1LjI0MjE4NzUsInkiOjMyNy41fSx7IngiOjEwMTMuOTc0OTU3NzcwMjcwMywieSI6Mzc4fV0=" marker-start="url(#my-svg_er-zeroOrOneStart)" marker-end="url(#my-svg_er-onlyOneEnd)"/><path d="M1341.334,193L1343.329,184.583C1345.324,176.167,1349.315,159.333,1305.728,137.883C1262.142,116.432,1170.979,90.365,1125.398,77.331L1079.816,64.297" id="id_entity-Assignment-2_entity-Analysis-0_8" class="edge-thickness-normal edge-pattern-solid relationshipLine" style="undefined;;;undefined" data-edge="true" data-et="edge" data-id="id_entity-Assignment-2_entity-Analysis-0_8" data-points="W3sieCI6MTM0MS4zMzQzOTYxMTQ4NjQ4LCJ5IjoxOTN9LHsieCI6MTM1My4zMDQ2ODc1LCJ5IjoxNDIuNX0seyJ4IjoxMDc5LjgxNjQwNjI1LCJ5Ijo2NC4yOTcyNzIxNjc0MTMzM31d" marker-start="url(#my-svg_er-zeroOrOneStart)" marker-end="url(#my-svg_er-onlyOneEnd)"/><path d="M1270.965,260.78L1244.906,271.9C1218.846,283.02,1166.728,305.26,1132.929,324.797C1099.131,344.333,1083.653,361.167,1075.913,369.583L1068.174,378" id="id_entity-Assignment-2_entity-Feature-3_9" class="edge-thickness-normal edge-pattern-solid relationshipLine" style="undefined;;;undefined" data-edge="true" data-et="edge" data-id="id_entity-Assignment-2_entity-Feature-3_9" data-points="W3sieCI6MTI3MC45NjQ4NDM3NSwieSI6MjYwLjc3OTkxODE4Nzg3OTU2fSx7IngiOjExMTQuNjA5Mzc1LCJ5IjozMjcuNX0seyJ4IjoxMDY4LjE3NDExMzE3NTY3NTgsInkiOjM3OH1d" marker-start="url(#my-svg_er-zeroOrOneStart)" marker-end="url(#my-svg_er-onlyOneEnd)"/><path d="M1348.294,277L1351.684,285.417C1355.074,293.833,1361.853,310.667,1365.243,327.5C1368.633,344.333,1368.633,361.167,1368.633,369.583L1368.633,378" id="id_entity-Assignment-2_entity-Taxonomy-4_10" class="edge-thickness-normal edge-pattern-solid relationshipLine" style="undefined;;;undefined" data-edge="true" data-et="edge" data-id="id_entity-Assignment-2_entity-Taxonomy-4_10" data-points="W3sieCI6MTM0OC4yOTQxOTM0MTIxNjIzLCJ5IjoyNzd9LHsieCI6MTM2OC42MzI4MTI1LCJ5IjozMjcuNX0seyJ4IjoxMzY4LjYzMjgxMjUsInkiOjM3OH1d" marker-start="url(#my-svg_er-zeroOrOneStart)" marker-end="url(#my-svg_er-onlyOneEnd)"/><path d="M491.164,242.305L393.97,256.504C296.776,270.703,102.388,299.102,21.861,323.579C-58.667,348.056,-25.333,368.611,-8.667,378.889L8,389.167" id="id_entity-Project-6_entity-Sample-7_11" class="edge-thickness-normal edge-pattern-solid relationshipLine" style="undefined;;;undefined" data-edge="true" data-et="edge" data-id="id_entity-Project-6_entity-Sample-7_11" data-points="W3sieCI6NDkxLjE2NDA2MjUsInkiOjI0Mi4zMDQ1ODM4NzMxNTY5fSx7IngiOi05MiwieSI6MzI3LjV9LHsieCI6OCwieSI6Mzg5LjE2NjY2NjY2NjY2Njd9XQ==" marker-start="url(#my-svg_er-zeroOrMoreStart)" marker-end="url(#my-svg_er-zeroOrMoreEnd)"/><path d="M491.164,242.543L397.303,256.702C303.443,270.862,115.721,299.181,21.861,328.757C-72,358.333,-72,389.167,-72,420C-72,450.833,-72,481.667,-72,512.5C-72,543.333,-72,574.167,-72,605C-72,635.833,-72,666.667,-29.893,694.729C12.214,722.791,96.427,748.083,138.534,760.729L180.641,773.374" id="id_entity-Project-6_entity-AssayPrep-9_12" class="edge-thickness-normal edge-pattern-solid relationshipLine" style="undefined;;;undefined" data-edge="true" data-et="edge" data-id="id_entity-Project-6_entity-AssayPrep-9_12" data-points="W3sieCI6NDkxLjE2NDA2MjUsInkiOjI0Mi41NDI4NDI1ODEzODQ5N30seyJ4IjotNzIsInkiOjMyNy41fSx7IngiOi03MiwieSI6NDIwfSx7IngiOi03MiwieSI6NTEyLjV9LHsieCI6LTcyLCJ5Ijo2MDV9LHsieCI6LTcyLCJ5Ijo2OTcuNX0seyJ4IjoxODAuNjQwNjI1LCJ5Ijo3NzMuMzc0MjEzNjc2OTQ4MX1d" marker-start="url(#my-svg_er-zeroOrMoreStart)" marker-end="url(#my-svg_er-zeroOrMoreEnd)"/><path d="M523.27,277L519.684,285.417C516.098,293.833,508.926,310.667,505.34,334.5C501.754,358.333,501.754,389.167,501.754,420C501.754,450.833,501.754,481.667,501.754,512.5C501.754,543.333,501.754,574.167,501.754,605C501.754,635.833,501.754,666.667,501.754,697.5C501.754,728.333,501.754,759.167,501.754,790C501.754,820.833,501.754,851.667,479.831,878.254C457.908,904.841,414.061,927.182,392.138,938.353L370.215,949.523" id="id_entity-Project-6_entity-Library-10_13" class="edge-thickness-normal edge-pattern-solid relationshipLine" style="undefined;;;undefined" data-edge="true" data-et="edge" data-id="id_entity-Project-6_entity-Library-10_13" data-points="W3sieCI6NTIzLjI2OTcyMTI4Mzc4MzgsInkiOjI3N30seyJ4Ijo1MDEuNzUzOTA2MjUsInkiOjMyNy41fSx7IngiOjUwMS43NTM5MDYyNSwieSI6NDIwfSx7IngiOjUwMS43NTM5MDYyNSwieSI6NTEyLjV9LHsieCI6NTAxLjc1MzkwNjI1LCJ5Ijo2MDV9LHsieCI6NTAxLjc1MzkwNjI1LCJ5Ijo2OTcuNX0seyJ4Ijo1MDEuNzUzOTA2MjUsInkiOjc5MH0seyJ4Ijo1MDEuNzUzOTA2MjUsInkiOjg4Mi41fSx7IngiOjM3MC4yMTQ4NDM3NSwieSI6OTQ5LjUyMzM4OTQyMjA0MjR9XQ==" marker-start="url(#my-svg_er-zeroOrMoreStart)" marker-end="url(#my-svg_er-zeroOrMoreEnd)"/><path d="M108,410.492L180.739,396.66C253.478,382.828,398.956,355.164,471.397,332.915C543.839,310.667,543.244,293.833,542.946,285.417L542.649,277" id="id_entity-Sample-7_entity-Project-6_14" class="edge-thickness-normal edge-pattern-solid relationshipLine" style="undefined;;;undefined" data-edge="true" data-et="edge" data-id="id_entity-Sample-7_entity-Project-6_14" data-points="W3sieCI6MTA4LCJ5Ijo0MTAuNDkyMDIxODEwNTMxMDd9LHsieCI6NTQ0LjQzMzU5Mzc1LCJ5IjozMjcuNX0seyJ4Ijo1NDIuNjQ4NjA2NDE4OTE4OSwieSI6Mjc3fV0=" marker-start="url(#my-svg_er-zeroOrOneStart)" marker-end="url(#my-svg_er-onlyOneEnd)"/><path d="M28.486,462L22.572,470.417C16.658,478.833,4.829,495.667,49.605,517.323C94.382,538.98,195.763,565.46,246.454,578.7L297.145,591.94" id="id_entity-Sample-7_entity-Assay-8_15" class="edge-thickness-normal edge-pattern-solid relationshipLine" style="undefined;;;undefined" data-edge="true" data-et="edge" data-id="id_entity-Sample-7_entity-Assay-8_15" data-points="W3sieCI6MjguNDg2NDg2NDg2NDg2NDg4LCJ5Ijo0NjJ9LHsieCI6LTcsInkiOjUxMi41fSx7IngiOjI5Ny4xNDQ1MzEyNSwieSI6NTkxLjk0MDM2MDI0MzEwMzR9XQ==" marker-start="url(#my-svg_er-zeroOrMoreStart)" marker-end="url(#my-svg_er-zeroOrMoreEnd)"/><path d="M58,462L58,470.417C58,478.833,58,495.667,58,519.5C58,543.333,58,574.167,58,605C58,635.833,58,666.667,58,697.5C58,728.333,58,759.167,58,790C58,820.833,58,851.667,93.369,879.56C128.738,907.454,199.477,932.408,234.846,944.885L270.215,957.362" id="id_entity-Sample-7_entity-Library-10_16" class="edge-thickness-normal edge-pattern-solid relationshipLine" style="undefined;;;undefined" data-edge="true" data-et="edge" data-id="id_entity-Sample-7_entity-Library-10_16" data-points="W3sieCI6NTgsInkiOjQ2Mn0seyJ4Ijo1OCwieSI6NTEyLjV9LHsieCI6NTgsInkiOjYwNX0seyJ4Ijo1OCwieSI6Njk3LjV9LHsieCI6NTgsInkiOjc5MH0seyJ4Ijo1OCwieSI6ODgyLjV9LHsieCI6MjcwLjIxNDg0Mzc1LCJ5Ijo5NTcuMzYxNzkxODI3NDMxNn1d" marker-start="url(#my-svg_er-zeroOrMoreStart)" marker-end="url(#my-svg_er-zeroOrMoreEnd)"/><path d="M297.145,646.612L286.954,655.094C276.763,663.575,256.382,680.537,246.191,697.435C236,714.333,236,731.167,236,739.583L236,748" id="id_entity-Assay-8_entity-AssayPrep-9_17" class="edge-thickness-normal edge-pattern-solid relationshipLine" style="undefined;;;undefined" data-edge="true" data-et="edge" data-id="id_entity-Assay-8_entity-AssayPrep-9_17" data-points="W3sieCI6Mjk3LjE0NDUzMTI1LCJ5Ijo2NDYuNjEyNDgzNzQ1MTIzNX0seyJ4IjoyMzYsInkiOjY5Ny41fSx7IngiOjIzNiwieSI6NzQ4fV0=" marker-start="url(#my-svg_er-zeroOrMoreStart)" marker-end="url(#my-svg_er-zeroOrMoreEnd)"/><path d="M358.139,647L360.343,655.417C362.546,663.833,366.953,680.667,369.156,704.5C371.359,728.333,371.359,759.167,371.359,790C371.359,820.833,371.359,851.667,366.706,875.5C362.052,899.333,352.745,916.167,348.091,924.583L343.437,933" id="id_entity-Assay-8_entity-Library-10_18" class="edge-thickness-normal edge-pattern-solid relationshipLine" style="undefined;;;undefined" data-edge="true" data-et="edge" data-id="id_entity-Assay-8_entity-Library-10_18" data-points="W3sieCI6MzU4LjEzOTM3OTIyMjk3MywieSI6NjQ3fSx7IngiOjM3MS4zNTkzNzUsInkiOjY5Ny41fSx7IngiOjM3MS4zNTkzNzUsInkiOjc5MH0seyJ4IjozNzEuMzU5Mzc1LCJ5Ijo4ODIuNX0seyJ4IjozNDMuNDM3MjI1NTA2NzU2NzYsInkiOjkzM31d" marker-start="url(#my-svg_er-zeroOrMoreStart)" marker-end="url(#my-svg_er-zeroOrMoreEnd)"/><path d="M291.359,775.416L340.652,762.43C389.944,749.444,488.529,723.472,537.821,695.069C587.113,666.667,587.113,635.833,587.113,605C587.113,574.167,587.113,543.333,587.113,512.5C587.113,481.667,587.113,450.833,587.113,420C587.113,389.167,587.113,358.333,582.932,334.5C578.751,310.667,570.389,293.833,566.208,285.417L562.027,277" id="id_entity-AssayPrep-9_entity-Project-6_19" class="edge-thickness-normal edge-pattern-solid relationshipLine" style="undefined;;;undefined" data-edge="true" data-et="edge" data-id="id_entity-AssayPrep-9_entity-Project-6_19" data-points="W3sieCI6MjkxLjM1OTM3NSwieSI6Nzc1LjQxNTY5NzgzNjEyNH0seyJ4Ijo1ODcuMTEzMjgxMjUsInkiOjY5Ny41fSx7IngiOjU4Ny4xMTMyODEyNSwieSI6NjA1fSx7IngiOjU4Ny4xMTMyODEyNSwieSI6NTEyLjV9LHsieCI6NTg3LjExMzI4MTI1LCJ5Ijo0MjB9LHsieCI6NTg3LjExMzI4MTI1LCJ5IjozMjcuNX0seyJ4Ijo1NjIuMDI3NDkxNTU0MDU0MSwieSI6Mjc3fV0=" marker-start="url(#my-svg_er-zeroOrOneStart)" marker-end="url(#my-svg_er-onlyOneEnd)"/><path d="M291.359,761.848L312.449,751.123C333.538,740.398,375.716,718.949,390.368,699.808C405.019,680.667,392.144,663.833,385.706,655.417L379.269,647" id="id_entity-AssayPrep-9_entity-Assay-8_20" class="edge-thickness-normal edge-pattern-solid relationshipLine" style="undefined;;;undefined" data-edge="true" data-et="edge" data-id="id_entity-AssayPrep-9_entity-Assay-8_20" data-points="W3sieCI6MjkxLjM1OTM3NSwieSI6NzYxLjg0NzczOTcxODY3Mjl9LHsieCI6NDE3Ljg5NDUzMTI1LCJ5Ijo2OTcuNX0seyJ4IjozNzkuMjY4ODU1NTc0MzI0MzMsInkiOjY0N31d" marker-start="url(#my-svg_er-zeroOrOneStart)" marker-end="url(#my-svg_er-onlyOneEnd)"/><path d="M209.81,832L204.562,840.417C199.314,848.833,188.817,865.667,198.884,884.068C208.952,902.468,239.583,922.437,254.899,932.421L270.215,942.405" id="id_entity-AssayPrep-9_entity-Library-10_21" class="edge-thickness-normal edge-pattern-solid relationshipLine" style="undefined;;;undefined" data-edge="true" data-et="edge" data-id="id_entity-AssayPrep-9_entity-Library-10_21" data-points="W3sieCI6MjA5LjgxMDMwNDA1NDA1NDA2LCJ5Ijo4MzJ9LHsieCI6MTc4LjMyMDMxMjUsInkiOjg4Mi41fSx7IngiOjI3MC4yMTQ4NDM3NSwieSI6OTQyLjQwNTM2ODIwMzcxNjR9XQ==" marker-start="url(#my-svg_er-zeroOrMoreStart)" marker-end="url(#my-svg_er-zeroOrMoreEnd)"/><path d="M370.215,960.06L413.478,947.134C456.741,934.207,543.267,908.353,586.53,880.01C629.793,851.667,629.793,820.833,629.793,790C629.793,759.167,629.793,728.333,629.793,697.5C629.793,666.667,629.793,635.833,629.793,605C629.793,574.167,629.793,543.333,629.793,512.5C629.793,481.667,629.793,450.833,629.793,420C629.793,389.167,629.793,358.333,621.729,334.5C613.664,310.667,597.535,293.833,589.471,285.417L581.406,277" id="id_entity-Library-10_entity-Project-6_22" class="edge-thickness-normal edge-pattern-solid relationshipLine" style="undefined;;;undefined" data-edge="true" data-et="edge" data-id="id_entity-Library-10_entity-Project-6_22" data-points="W3sieCI6MzcwLjIxNDg0Mzc1LCJ5Ijo5NjAuMDYwMzEzOTM1Mjk1fSx7IngiOjYyOS43OTI5Njg3NSwieSI6ODgyLjV9LHsieCI6NjI5Ljc5Mjk2ODc1LCJ5Ijo3OTB9LHsieCI6NjI5Ljc5Mjk2ODc1LCJ5Ijo2OTcuNX0seyJ4Ijo2MjkuNzkyOTY4NzUsInkiOjYwNX0seyJ4Ijo2MjkuNzkyOTY4NzUsInkiOjUxMi41fSx7IngiOjYyOS43OTI5Njg3NSwieSI6NDIwfSx7IngiOjYyOS43OTI5Njg3NSwieSI6MzI3LjV9LHsieCI6NTgxLjQwNjM3NjY4OTE4OTIsInkiOjI3N31d" marker-start="url(#my-svg_er-zeroOrOneStart)" marker-end="url(#my-svg_er-onlyOneEnd)"/><path d="M270.215,953.937L241.952,942.03C213.69,930.124,157.165,906.312,128.903,878.989C100.641,851.667,100.641,820.833,100.641,790C100.641,759.167,100.641,728.333,100.641,697.5C100.641,666.667,100.641,635.833,100.641,605C100.641,574.167,100.641,543.333,96.761,519.5C92.881,495.667,85.121,478.833,81.241,470.417L77.361,462" id="id_entity-Library-10_entity-Sample-7_23" class="edge-thickness-normal edge-pattern-solid relationshipLine" style="undefined;;;undefined" data-edge="true" data-et="edge" data-id="id_entity-Library-10_entity-Sample-7_23" data-points="W3sieCI6MjcwLjIxNDg0Mzc1LCJ5Ijo5NTMuOTM2NTA3MDg5MzU5N30seyJ4IjoxMDAuNjQwNjI1LCJ5Ijo4ODIuNX0seyJ4IjoxMDAuNjQwNjI1LCJ5Ijo3OTB9LHsieCI6MTAwLjY0MDYyNSwieSI6Njk3LjV9LHsieCI6MTAwLjY0MDYyNSwieSI6NjA1fSx7IngiOjEwMC42NDA2MjUsInkiOjUxMi41fSx7IngiOjc3LjM2MTE0ODY0ODY0ODY1LCJ5Ijo0NjJ9XQ==" marker-start="url(#my-svg_er-zeroOrOneStart)" marker-end="url(#my-svg_er-onlyOneEnd)"/><path d="M370.215,940.641L384.316,930.951C398.418,921.261,426.621,901.88,440.723,876.774C454.824,851.667,454.824,820.833,454.824,790C454.824,759.167,454.824,728.333,445.026,704.5C435.228,680.667,415.633,663.833,405.835,655.417L396.037,647" id="id_entity-Library-10_entity-Assay-8_24" class="edge-thickness-normal edge-pattern-solid relationshipLine" style="undefined;;;undefined" data-edge="true" data-et="edge" data-id="id_entity-Library-10_entity-Assay-8_24" data-points="W3sieCI6MzcwLjIxNDg0Mzc1LCJ5Ijo5NDAuNjQxMzIzMjczMzYwNH0seyJ4Ijo0NTQuODI0MjE4NzUsInkiOjg4Mi41fSx7IngiOjQ1NC44MjQyMTg3NSwieSI6NzkwfSx7IngiOjQ1NC44MjQyMTg3NSwieSI6Njk3LjV9LHsieCI6Mzk2LjAzNjkyOTg5ODY0ODYsInkiOjY0N31d" marker-start="url(#my-svg_er-zeroOrOneStart)" marker-end="url(#my-svg_er-onlyOneEnd)"/><path d="M301.141,933L297.319,924.583C293.496,916.167,285.852,899.333,278.189,882.5C270.526,865.667,262.845,848.833,259.005,840.417L255.164,832" id="id_entity-Library-10_entity-AssayPrep-9_25" class="edge-thickness-normal edge-pattern-solid relationshipLine" style="undefined;;;undefined" data-edge="true" data-et="edge" data-id="id_entity-Library-10_entity-AssayPrep-9_25" data-points="W3sieCI6MzAxLjE0MTAyNjE4MjQzMjQsInkiOjkzM30seyJ4IjoyNzguMjA3MDMxMjUsInkiOjg4Mi41fSx7IngiOjI1NS4xNjQyNzM2NDg2NDg2NSwieSI6ODMyfV0=" marker-start="url(#my-svg_er-zeroOrOneStart)" marker-end="url(#my-svg_er-onlyOneEnd)"/></g><g class="edgeLabels"><g class="edgeLabel" transform="translate(541.1640625, 142.5)"><g class="label" data-id="id_entity-Analysis-0_entity-Project-6_0" transform="translate(-22.6796875, -10.5)"><foreignObject width="45.359375" height="21"><div xmlns="http://www.w3.org/1999/xhtml" class="labelBkg" style="display: table-cell; white-space: nowrap; line-height: 1.5; max-width: 200px; text-align: center;"><span class="edgeLabel"><p>Project</p></span></div></foreignObject></g></g><g class="edgeLabel" transform="translate(689.04296875, 327.5)"><g class="label" data-id="id_entity-Analysis-0_entity-Assay-8_1" transform="translate(-16.9296875, -10.5)"><foreignObject width="33.859375" height="21"><div xmlns="http://www.w3.org/1999/xhtml" class="labelBkg" style="display: table-cell; white-space: nowrap; line-height: 1.5; max-width: 200px; text-align: center;"><span class="edgeLabel"><p>Assay</p></span></div></foreignObject></g></g><g class="edgeLabel"><g class="label" data-id="id_entity-Analysis-0_entity-Occurrence-1_2" transform="translate(0, 0)"><foreignObject width="0" height="0"><div xmlns="http://www.w3.org/1999/xhtml" class="labelBkg" style="display: table-cell; white-space: nowrap; line-height: 1.5; max-width: 200px; text-align: center;"><span class="edgeLabel"></span></div></foreignObject></g></g><g class="edgeLabel"><g class="label" data-id="id_entity-Analysis-0_entity-Assignment-2_3" transform="translate(0, 0)"><foreignObject width="0" height="0"><div xmlns="http://www.w3.org/1999/xhtml" class="labelBkg" style="display: table-cell; white-space: nowrap; line-height: 1.5; max-width: 200px; text-align: center;"><span class="edgeLabel"></span></div></foreignObject></g></g><g class="edgeLabel"><g class="label" data-id="id_entity-Analysis-0_entity-Tag-5_4" transform="translate(0, 0)"><foreignObject width="0" height="0"><div xmlns="http://www.w3.org/1999/xhtml" class="labelBkg" style="display: table-cell; white-space: nowrap; line-height: 1.5; max-width: 200px; text-align: center;"><span class="edgeLabel"></span></div></foreignObject></g></g><g class="edgeLabel" transform="translate(777.59375, 605)"><g class="label" data-id="id_entity-Occurrence-1_entity-Library-10_5" transform="translate(-22.015625, -10.5)"><foreignObject width="44.03125" height="21"><div xmlns="http://www.w3.org/1999/xhtml" class="labelBkg" style="display: table-cell; white-space: nowrap; line-height: 1.5; max-width: 200px; text-align: center;"><span class="edgeLabel"><p>Library</p></span></div></foreignObject></g></g><g class="edgeLabel" transform="translate(1105.76476, 164.87751)"><g class="label" data-id="id_entity-Occurrence-1_entity-Analysis-0_6" transform="translate(-24.8125, -10.5)"><foreignObject width="49.625" height="21"><div xmlns="http://www.w3.org/1999/xhtml" class="labelBkg" style="display: table-cell; white-space: nowrap; line-height: 1.5; max-width: 200px; text-align: center;"><span class="edgeLabel"><p>Analysis</p></span></div></foreignObject></g></g><g class="edgeLabel" transform="translate(966.60321, 311.46797)"><g class="label" data-id="id_entity-Occurrence-1_entity-Feature-3_7" transform="translate(-24.3125, -10.5)"><foreignObject width="48.625" height="21"><div xmlns="http://www.w3.org/1999/xhtml" class="labelBkg" style="display: table-cell; white-space: nowrap; line-height: 1.5; max-width: 200px; text-align: center;"><span class="edgeLabel"><p>Feature</p></span></div></foreignObject></g></g><g class="edgeLabel" transform="translate(1241.51024, 110.53289)"><g class="label" data-id="id_entity-Assignment-2_entity-Analysis-0_8" transform="translate(-24.8125, -10.5)"><foreignObject width="49.625" height="21"><div xmlns="http://www.w3.org/1999/xhtml" class="labelBkg" style="display: table-cell; white-space: nowrap; line-height: 1.5; max-width: 200px; text-align: center;"><span class="edgeLabel"><p>Analysis</p></span></div></foreignObject></g></g><g class="edgeLabel" transform="translate(1161.23758, 307.60279)"><g class="label" data-id="id_entity-Assignment-2_entity-Feature-3_9" transform="translate(-24.3125, -10.5)"><foreignObject width="48.625" height="21"><div xmlns="http://www.w3.org/1999/xhtml" class="labelBkg" style="display: table-cell; white-space: nowrap; line-height: 1.5; max-width: 200px; text-align: center;"><span class="edgeLabel"><p>Feature</p></span></div></foreignObject></g></g><g class="edgeLabel" transform="translate(1368.6328125, 327.5)"><g class="label" data-id="id_entity-Assignment-2_entity-Taxonomy-4_10" transform="translate(-30.984375, -10.5)"><foreignObject width="61.96875" height="21"><div xmlns="http://www.w3.org/1999/xhtml" class="labelBkg" style="display: table-cell; white-space: nowrap; line-height: 1.5; max-width: 200px; text-align: center;"><span class="edgeLabel"><p>Taxonomy</p></span></div></foreignObject></g></g><g class="edgeLabel"><g class="label" data-id="id_entity-Project-6_entity-Sample-7_11" transform="translate(0, 0)"><foreignObject width="0" height="0"><div xmlns="http://www.w3.org/1999/xhtml" class="labelBkg" style="display: table-cell; white-space: nowrap; line-height: 1.5; max-width: 200px; text-align: center;"><span class="edgeLabel"></span></div></foreignObject></g></g><g class="edgeLabel"><g class="label" data-id="id_entity-Project-6_entity-AssayPrep-9_12" transform="translate(0, 0)"><foreignObject width="0" height="0"><div xmlns="http://www.w3.org/1999/xhtml" class="labelBkg" style="display: table-cell; white-space: nowrap; line-height: 1.5; max-width: 200px; text-align: center;"><span class="edgeLabel"></span></div></foreignObject></g></g><g class="edgeLabel"><g class="label" data-id="id_entity-Project-6_entity-Library-10_13" transform="translate(0, 0)"><foreignObject width="0" height="0"><div xmlns="http://www.w3.org/1999/xhtml" class="labelBkg" style="display: table-cell; white-space: nowrap; line-height: 1.5; max-width: 200px; text-align: center;"><span class="edgeLabel"></span></div></foreignObject></g></g><g class="edgeLabel" transform="translate(544.43359375, 327.5)"><g class="label" data-id="id_entity-Sample-7_entity-Project-6_14" transform="translate(-22.6796875, -10.5)"><foreignObject width="45.359375" height="21"><div xmlns="http://www.w3.org/1999/xhtml" class="labelBkg" style="display: table-cell; white-space: nowrap; line-height: 1.5; max-width: 200px; text-align: center;"><span class="edgeLabel"><p>Project</p></span></div></foreignObject></g></g><g class="edgeLabel"><g class="label" data-id="id_entity-Sample-7_entity-Assay-8_15" transform="translate(0, 0)"><foreignObject width="0" height="0"><div xmlns="http://www.w3.org/1999/xhtml" class="labelBkg" style="display: table-cell; white-space: nowrap; line-height: 1.5; max-width: 200px; text-align: center;"><span class="edgeLabel"></span></div></foreignObject></g></g><g class="edgeLabel"><g class="label" data-id="id_entity-Sample-7_entity-Library-10_16" transform="translate(0, 0)"><foreignObject width="0" height="0"><div xmlns="http://www.w3.org/1999/xhtml" class="labelBkg" style="display: table-cell; white-space: nowrap; line-height: 1.5; max-width: 200px; text-align: center;"><span class="edgeLabel"></span></div></foreignObject></g></g><g class="edgeLabel"><g class="label" data-id="id_entity-Assay-8_entity-AssayPrep-9_17" transform="translate(0, 0)"><foreignObject width="0" height="0"><div xmlns="http://www.w3.org/1999/xhtml" class="labelBkg" style="display: table-cell; white-space: nowrap; line-height: 1.5; max-width: 200px; text-align: center;"><span class="edgeLabel"></span></div></foreignObject></g></g><g class="edgeLabel"><g class="label" data-id="id_entity-Assay-8_entity-Library-10_18" transform="translate(0, 0)"><foreignObject width="0" height="0"><div xmlns="http://www.w3.org/1999/xhtml" class="labelBkg" style="display: table-cell; white-space: nowrap; line-height: 1.5; max-width: 200px; text-align: center;"><span class="edgeLabel"></span></div></foreignObject></g></g><g class="edgeLabel" transform="translate(587.11328125, 512.5)"><g class="label" data-id="id_entity-AssayPrep-9_entity-Project-6_19" transform="translate(-22.6796875, -10.5)"><foreignObject width="45.359375" height="21"><div xmlns="http://www.w3.org/1999/xhtml" class="labelBkg" style="display: table-cell; white-space: nowrap; line-height: 1.5; max-width: 200px; text-align: center;"><span class="edgeLabel"><p>Project</p></span></div></foreignObject></g></g><g class="edgeLabel" transform="translate(382.96259, 715.26416)"><g class="label" data-id="id_entity-AssayPrep-9_entity-Assay-8_20" transform="translate(-16.9296875, -10.5)"><foreignObject width="33.859375" height="21"><div xmlns="http://www.w3.org/1999/xhtml" class="labelBkg" style="display: table-cell; white-space: nowrap; line-height: 1.5; max-width: 200px; text-align: center;"><span class="edgeLabel"><p>Assay</p></span></div></foreignObject></g></g><g class="edgeLabel"><g class="label" data-id="id_entity-AssayPrep-9_entity-Library-10_21" transform="translate(0, 0)"><foreignObject width="0" height="0"><div xmlns="http://www.w3.org/1999/xhtml" class="labelBkg" style="display: table-cell; white-space: nowrap; line-height: 1.5; max-width: 200px; text-align: center;"><span class="edgeLabel"></span></div></foreignObject></g></g><g class="edgeLabel" transform="translate(629.79296875, 605)"><g class="label" data-id="id_entity-Library-10_entity-Project-6_22" transform="translate(-22.6796875, -10.5)"><foreignObject width="45.359375" height="21"><div xmlns="http://www.w3.org/1999/xhtml" class="labelBkg" style="display: table-cell; white-space: nowrap; line-height: 1.5; max-width: 200px; text-align: center;"><span class="edgeLabel"><p>Project</p></span></div></foreignObject></g></g><g class="edgeLabel" transform="translate(100.640625, 697.5)"><g class="label" data-id="id_entity-Library-10_entity-Sample-7_23" transform="translate(-22.640625, -10.5)"><foreignObject width="45.28125" height="21"><div xmlns="http://www.w3.org/1999/xhtml" class="labelBkg" style="display: table-cell; white-space: nowrap; line-height: 1.5; max-width: 200px; text-align: center;"><span class="edgeLabel"><p>Sample</p></span></div></foreignObject></g></g><g class="edgeLabel" transform="translate(454.82421875, 790)"><g class="label" data-id="id_entity-Library-10_entity-Assay-8_24" transform="translate(-16.9296875, -10.5)"><foreignObject width="33.859375" height="21"><div xmlns="http://www.w3.org/1999/xhtml" class="labelBkg" style="display: table-cell; white-space: nowrap; line-height: 1.5; max-width: 200px; text-align: center;"><span class="edgeLabel"><p>Assay</p></span></div></foreignObject></g></g><g class="edgeLabel" transform="translate(278.20703125, 882.5)"><g class="label" data-id="id_entity-Library-10_entity-AssayPrep-9_25" transform="translate(-30.9453125, -10.5)"><foreignObject width="61.890625" height="21"><div xmlns="http://www.w3.org/1999/xhtml" class="labelBkg" style="display: table-cell; white-space: nowrap; line-height: 1.5; max-width: 200px; text-align: center;"><span class="edgeLabel"><p>AssayPrep</p></span></div></foreignObject></g></g></g><g class="nodes"><g class="node default" id="entity-Analysis-0" transform="translate(1029.81640625, 50)"><rect class="basic label-container" style="" x="-50" y="-42" width="100" height="84"/><g class="label" style="" transform="translate(-28.359375, -12)"><rect/><foreignObject width="56.71875" height="24"><div xmlns="http://www.w3.org/1999/xhtml" style="display: table-cell; white-space: nowrap; line-height: 1.5; max-width: 100px; text-align: center;"><span class="nodeLabel"><p>Analysis</p></span></div></foreignObject></g></g><g class="node default" id="entity-Occurrence-1" transform="translate(830.00390625, 235)"><rect class="basic label-container" style="" x="-60.9609375" y="-42" width="121.921875" height="84"/><g class="label" style="" transform="translate(-40.9609375, -12)"><rect/><foreignObject width="81.921875" height="24"><div xmlns="http://www.w3.org/1999/xhtml" style="display: table-cell; white-space: nowrap; line-height: 1.5; max-width: 200px; text-align: center;"><span class="nodeLabel"><p>Occurrence</p></span></div></foreignObject></g></g><g class="node default" id="entity-Assignment-2" transform="translate(1331.37890625, 235)"><rect class="basic label-container" style="" x="-60.4140625" y="-42" width="120.828125" height="84"/><g class="label" style="" transform="translate(-40.4140625, -12)"><rect/><foreignObject width="80.828125" height="24"><div xmlns="http://www.w3.org/1999/xhtml" style="display: table-cell; white-space: nowrap; line-height: 1.5; max-width: 200px; text-align: center;"><span class="nodeLabel"><p>Assignment</p></span></div></foreignObject></g></g><g class="node default" id="entity-Feature-3" transform="translate(1029.5546875, 420)"><rect class="basic label-container" style="" x="-50" y="-42" width="100" height="84"/><g class="label" style="" transform="translate(-27.78125, -12)"><rect/><foreignObject width="55.5625" height="24"><div xmlns="http://www.w3.org/1999/xhtml" style="display: table-cell; white-space: nowrap; line-height: 1.5; max-width: 100px; text-align: center;"><span class="nodeLabel"><p>Feature</p></span></div></foreignObject></g></g><g class="node default" id="entity-Taxonomy-4" transform="translate(1368.6328125, 420)"><rect class="basic label-container" style="" x="-55.40625" y="-42" width="110.8125" height="84"/><g class="label" style="" transform="translate(-35.40625, -12)"><rect/><foreignObject width="70.8125" height="24"><div xmlns="http://www.w3.org/1999/xhtml" style="display: table-cell; white-space: nowrap; line-height: 1.5; max-width: 200px; text-align: center;"><span class="nodeLabel"><p>Taxonomy</p></span></div></foreignObject></g></g><g class="node default" id="entity-Tag-5" transform="translate(1080.96484375, 235)"><rect class="basic label-container" style="" x="-50" y="-42" width="100" height="84"/><g class="label" style="" transform="translate(-11.8671875, -12)"><rect/><foreignObject width="23.734375" height="24"><div xmlns="http://www.w3.org/1999/xhtml" style="display: table-cell; white-space: nowrap; line-height: 1.5; max-width: 100px; text-align: center;"><span class="nodeLabel"><p>Tag</p></span></div></foreignObject></g></g><g class="node default" id="entity-Project-6" transform="translate(541.1640625, 235)"><rect class="basic label-container" style="" x="-50" y="-42" width="100" height="84"/><g class="label" style="" transform="translate(-25.921875, -12)"><rect/><foreignObject width="51.84375" height="24"><div xmlns="http://www.w3.org/1999/xhtml" style="display: table-cell; white-space: nowrap; line-height: 1.5; max-width: 100px; text-align: center;"><span class="nodeLabel"><p>Project</p></span></div></foreignObject></g></g><g class="node default" id="entity-Sample-7" transform="translate(58, 420)"><rect class="basic label-container" style="" x="-50" y="-42" width="100" height="84"/><g class="label" style="" transform="translate(-25.875, -12)"><rect/><foreignObject width="51.75" height="24"><div xmlns="http://www.w3.org/1999/xhtml" style="display: table-cell; white-space: nowrap; line-height: 1.5; max-width: 100px; text-align: center;"><span class="nodeLabel"><p>Sample</p></span></div></foreignObject></g></g><g class="node default" id="entity-Assay-8" transform="translate(347.14453125, 605)"><rect class="basic label-container" style="" x="-50" y="-42" width="100" height="84"/><g class="label" style="" transform="translate(-19.34375, -12)"><rect/><foreignObject width="38.6875" height="24"><div xmlns="http://www.w3.org/1999/xhtml" style="display: table-cell; white-space: nowrap; line-height: 1.5; max-width: 100px; text-align: center;"><span class="nodeLabel"><p>Assay</p></span></div></foreignObject></g></g><g class="node default" id="entity-AssayPrep-9" transform="translate(236, 790)"><rect class="basic label-container" style="" x="-55.359375" y="-42" width="110.71875" height="84"/><g class="label" style="" transform="translate(-35.359375, -12)"><rect/><foreignObject width="70.71875" height="24"><div xmlns="http://www.w3.org/1999/xhtml" style="display: table-cell; white-space: nowrap; line-height: 1.5; max-width: 200px; text-align: center;"><span class="nodeLabel"><p>AssayPrep</p></span></div></foreignObject></g></g><g class="node default" id="entity-Library-10" transform="translate(320.21484375, 975)"><rect class="basic label-container" style="" x="-50" y="-42" width="100" height="84"/><g class="label" style="" transform="translate(-25.15625, -12)"><rect/><foreignObject width="50.3125" height="24"><div xmlns="http://www.w3.org/1999/xhtml" style="display: table-cell; white-space: nowrap; line-height: 1.5; max-width: 100px; text-align: center;"><span class="nodeLabel"><p>Library</p></span></div></foreignObject></g></g></g></g></g></svg>