<?xml version="1.0" encoding="UTF-8"?>
<svg id="Layer_2" data-name="Layer 2" xmlns="http://www.w3.org/2000/svg" viewBox="0 0 452.49 76.31">
  <defs>
    <style>
      .cls-1 {
        fill: #64abdc;
      }

      .cls-2 {
        fill: #233d7f;
      }
    </style>
  </defs>
  <g id="Layer_1-2" data-name="Layer 1">
    <g>
      <path class="cls-1" d="M34.24,44.52c-5.46,6.52-7.93,16.6-3.37,24.24,6.25,10.47,18.76,1.62,22.9-6.04l-17.91-6.75c-.12.02-.94,1.83-1.07,2.15-.36.9-1.52,4.31-1.52,5.07v4.03c-.92-.92-1.43-3.03-1.65-4.33-2-11.78,6.82-21.65,17.51-24.96l-2.88-4.32c-4.1-7.1-3.86-14.66,1.78-20.82.28-.31,2.52-2.49,2.81-2.19-.66,1.81-1.96,3.55-1.68,5.59l18.38,6.36c1.33-2.4.79-5.13.42-7.71-.04-.29-.11-.81.34-.58.37.18,2.05,2.93,2.36,3.5,3.42,6.14,3.66,11.52-1.14,17.01-3.02,3.46-6.99,5.18-11.11,6.96,3.77,6.2,5.19,12.17,2.24,19.07-4.33,10.15-14.84,16.18-25.79,15.45-9.7-.65-23.35-7.79-27.95-16.59C-.35,45.78,3.62,27.79,16.34,18.7c2.09-1.49,8.02-4.68,10.45-4.68h4.03c-.34,1.63-1.9,2.9-2.79,4.41-3.54,6-3.75,13.81-.09,19.82,1.56,2.56,3.89,4.55,6.3,6.27ZM66.69,25.5l-17.25-5.83c-.26-.07-.45.13-.52.37-.16.53-.04,4.11.25,4.43l14.84,5.08c.36.15.5-.05.75-.25.49-.41,2.36-3.3,1.93-3.79ZM61.58,31.83l-10.98-3.42c-.49.52,3.44,6.47,4.07,7.34.74.15,4.07-1.45,4.88-1.93.49-.28,2.53-1.39,2.03-1.99ZM55.72,51.11c.24-1.27-2.53-7.85-3.32-8.03-1.27.5-7.47,2.8-7.89,3.79-.06.15-.13.59.12.6l11.08,3.64ZM55.94,54.8l-14.75-4.92c-.9-.35-3.28,2.8-3.29,3.3l16.98,6.23c1.01-.01,1.2-3.81,1.06-4.62Z"/>
      <path class="cls-2" d="M6.9,59.65c-2.23-2.66-3.94-6.45-5-9.76C-7.13,21.81,17.48-5.49,46.2.95c2.01.45,10.4,3.26,11.22,4.89.24.48-.37.34-.61.36-10.54.86-19.98,6.75-21.59,17.96-.76,5.27,1.37,11.22,4.14,15.61,0,.55-1.94,1.72-2.45,2.19-.73.68-2.1,1.87-2.68,2.57-2.41-1.72-4.74-3.71-6.3-6.27-3.65-6.01-3.45-13.83.09-19.82.89-1.51,2.45-2.78,2.79-4.41h-4.03c-2.44,0-8.36,3.19-10.45,4.68C3.62,27.79-.35,45.78,6.9,59.65Z"/>
      <path class="cls-2" d="M56.45,70.88c6.41-5.88,9.51-12.92,7.95-21.73-.16-.93-1.77-5.78-1.57-6.06,4.1-1.57,7.33-4.56,9.94-8l2.48-4.23.76,7.2c-.32,11.77-5.42,22.74-14.69,29.99-1.37,1.07-3.16,2.47-4.86,2.83Z"/>
    </g>
    <g>
      <path class="cls-1" d="M90.96,36.8c0-9.67,5.18-15.54,12.55-15.54s12.55,5.89,12.55,15.54-5.18,15.76-12.55,15.76-12.55-6.09-12.55-15.76ZM112.2,36.8c0-7.52-3.45-12.16-8.69-12.16s-8.69,4.64-8.69,12.16,3.45,12.38,8.69,12.38,8.69-4.86,8.69-12.38Z"/>
      <path class="cls-1" d="M120.41,40.86c0-7.46,4.9-11.76,10.46-11.76,2.85,0,4.83,1.21,6.36,2.62l-1.88,2.5c-1.27-1.18-2.6-1.98-4.31-1.98-3.94,0-6.83,3.49-6.83,8.61s2.73,8.55,6.73,8.55c1.99,0,3.75-.99,5.11-2.23l1.6,2.54c-1.95,1.79-4.42,2.84-7.03,2.84-5.79,0-10.2-4.3-10.2-11.7Z"/>
      <path class="cls-1" d="M139.88,40.86c0-7.28,4.77-11.76,9.78-11.76,5.55,0,8.68,4.1,8.68,10.49,0,.8-.07,1.6-.17,2.15h-14.65c.26,4.74,3.08,7.81,7.23,7.81,2.09,0,3.8-.69,5.41-1.79l1.32,2.48c-1.91,1.28-4.22,2.32-7.18,2.32-5.8,0-10.41-4.36-10.41-11.7ZM155.08,39.03c0-4.48-1.96-6.92-5.36-6.92-3.06,0-5.79,2.52-6.24,6.92h11.6Z"/>
      <path class="cls-1" d="M161.71,46.2c0-4.87,4.09-7.31,13.36-8.34,0-2.88-.94-5.65-4.49-5.65-2.52,0-4.78,1.23-6.49,2.4l-1.44-2.59c2-1.35,5.05-2.92,8.54-2.92,5.31,0,7.55,3.63,7.55,9.2v13.72h-3.04l-.31-2.67h-.12c-2.07,1.77-4.49,3.23-7.19,3.23-3.64,0-6.37-2.32-6.37-6.36ZM175.07,46.55v-6.21c-7.29.9-9.75,2.74-9.75,5.59,0,2.54,1.68,3.58,3.81,3.58s3.83-1.05,5.94-2.96Z"/>
      <path class="cls-1" d="M185.61,29.65h3.04l.31,3.23h.12c2.07-2.1,4.31-3.78,7.29-3.78,4.58,0,6.64,3.04,6.64,8.75v14.17h-3.68v-13.68c0-4.17-1.23-5.95-4.1-5.95-2.22,0-3.76,1.17-5.95,3.43v16.19h-3.68v-22.36Z"/>
      <path class="cls-1" d="M219.38,21.82h7.35c9.03,0,13.87,5.4,13.87,14.99s-4.84,15.21-13.7,15.21h-7.51v-30.19ZM226.45,48.86c6.86,0,10.29-4.42,10.29-12.06s-3.42-11.84-10.29-11.84h-3.33v23.89h3.33Z"/>
      <path class="cls-1" d="M244.88,21.82h3.86l10.63,18.98,3.17,6.25h.18c-.19-3.05-.48-6.45-.48-9.61v-15.63h3.55v30.19h-3.86l-10.63-19-3.17-6.23h-.18c.19,3.05.48,6.27.48,9.43v15.8h-3.55v-30.19Z"/>
      <path class="cls-1" d="M279.29,21.82h4.22l9.93,30.19h-3.96l-5.12-16.86c-1.06-3.38-2-6.69-2.94-10.18h-.18c-.91,3.5-1.85,6.8-2.91,10.18l-5.18,16.86h-3.8l9.93-30.19ZM274.58,39.75h13.52v3.07h-13.52v-3.07Z"/>
      <path class="cls-1" d="M305.2,21.82h16.92v3.25h-13.19v9.46h11.12v3.25h-11.12v10.98h13.63v3.25h-17.37v-30.19Z"/>
      <path class="cls-1" d="M330.53,40.34l-6.58-10.69h3.99l2.91,4.91c.67,1.23,1.41,2.49,2.13,3.72h.18c.66-1.23,1.31-2.49,1.96-3.72l2.66-4.91h3.84l-6.58,11.09,7.11,11.27h-3.99l-3.2-5.2c-.76-1.35-1.55-2.73-2.36-4.01h-.18c-.75,1.29-1.45,2.65-2.2,4.01l-2.95,5.2h-3.84l7.11-11.67Z"/>
      <path class="cls-1" d="M345.84,29.65h3.04l.31,2.58h.12c1.97-1.68,4.41-3.13,6.93-3.13,5.62,0,8.62,4.48,8.62,11.39,0,7.62-4.45,12.07-9.42,12.07-1.99,0-4.03-.94-6.03-2.59l.1,3.9v7.57h-3.68v-31.8ZM361.06,40.52c0-4.94-1.64-8.24-5.73-8.24-1.84,0-3.7,1.04-5.81,3.05v11.72c1.97,1.7,3.86,2.33,5.29,2.33,3.6,0,6.25-3.33,6.25-8.85Z"/>
      <path class="cls-1" d="M369.91,47.52v-28.28h3.68v28.56c0,1.16.49,1.62,1.03,1.62.21,0,.39,0,.81-.09l.5,2.89c-.52.19-1.15.35-2.12.35-2.76,0-3.89-1.81-3.89-5.04Z"/>
      <path class="cls-1" d="M379.12,40.86c0-7.46,4.75-11.76,10.08-11.76s10.08,4.3,10.08,11.76-4.75,11.7-10.08,11.7-10.08-4.3-10.08-11.7ZM395.47,40.86c0-5.12-2.53-8.61-6.27-8.61s-6.27,3.49-6.27,8.61,2.53,8.55,6.27,8.55,6.27-3.43,6.27-8.55Z"/>
      <path class="cls-1" d="M404.41,29.65h3.04l.31,4.07h.12c1.51-2.84,3.74-4.62,6.18-4.62.96,0,1.64.13,2.32.46l-.69,3.32c-.75-.24-1.24-.37-2.11-.37-1.84,0-4.03,1.36-5.5,5.14v14.36h-3.68v-22.36Z"/>
      <path class="cls-1" d="M417.29,40.86c0-7.28,4.77-11.76,9.78-11.76,5.55,0,8.68,4.1,8.68,10.49,0,.8-.07,1.6-.17,2.15h-14.65c.26,4.74,3.08,7.81,7.23,7.81,2.09,0,3.8-.69,5.41-1.79l1.32,2.48c-1.91,1.28-4.22,2.32-7.18,2.32-5.8,0-10.41-4.36-10.41-11.7ZM432.49,39.03c0-4.48-1.96-6.92-5.36-6.92-3.06,0-5.79,2.52-6.24,6.92h11.6Z"/>
      <path class="cls-1" d="M440.52,29.65h3.04l.31,4.07h.12c1.51-2.84,3.74-4.62,6.18-4.62.96,0,1.64.13,2.32.46l-.69,3.32c-.75-.24-1.24-.37-2.11-.37-1.84,0-4.03,1.36-5.5,5.14v14.36h-3.68v-22.36Z"/>
    </g>
  </g>
</svg>