<?xml version="1.0" encoding="UTF-8"?>
<svg id="Layer_1" data-name="Layer 1" xmlns="http://www.w3.org/2000/svg" viewBox="0 0 5708 2656.38">
  <path d="M2096.16,1659.66c-40.84-17.76-83.05-28.61-128.45-26.54-31.56,1.43-50.15-13.54-49.9-43.58.48-56.82-72.29-121.89-120.63-123.57-52.04-1.8-95.24-19.45-137.33-48.08-39.52-26.89-81.63-25.35-121.73,2.72-9.32,6.52-19.02,12.98-29.44,17.36-32.17,13.53-61.37,4.89-87.32-15.61-24.01-18.96-11.45-40.91-2.67-62.04.29-.7.44-1.46.67-2.18,7.46-23.78-6.83-40.68-31.93-37.52-13.07,1.65-24.63,7.4-36.1,13.58-13.16,7.09-19.62.96-17.63-12.16,2.03-13.4,7.14-26.31,10.63-39.51,2.79-10.53,11.24-21.39.08-31.73-11.08-10.26-24.44-8.6-36.47-3.34-17.36,7.6-33.6,17.71-50.76,25.83-23.48,11.11-40.52,6.64-51.72-15.79-20.39-40.82-12.4-80.08,11.67-116.6,21.54-32.67,52.46-46.17,90.76-36.24,21.66,5.62,39.88,1.77,58.77-8.87,22.05-12.42,34.42-9.16,47.89,12.48,9.59,15.41,16.35,32.56,24.85,48.68,7.32,13.87,13.96,34.01,33.21,27.6,18.32-6.1,13.58-26.18,11.69-42.03-2.79-23.41-6.43-46.76-8.1-70.25-1.22-17.16,1.03-35.26,19.93-42.28,39.47-14.66,58.39-46.47,73.74-82.35,13.77-32.19,29.03-63.65,48.45-93,10.99-16.62,23.34-23.15,44.14-17.1,34.29,9.97,69.16,9.46,103.19-3.4,31.07-11.75,46.54-29.54,40.57-47.02-6.19-18.14-32.15-26.11-62.04-19.71-17.82,3.82-34.74,11.63-53.3,12.12-8.91.23-19.72,3.33-24.68-6.58-4.85-9.69,2.79-17.32,9.01-23.98,36.03-38.52,80.87-49.35,131.34-40.08,16.61,3.05,30.49,11.95,40.92,26.55-9.05,3.51-16.03,1.44-23.08-2.12-7.44-3.75-17.04-14.03-22.41-.4-4.45,11.29,8.35,14.57,16.22,18.15,24.39,11.09,57.94,3.65,75.57-16.12,21.65-24.28,24.53-56.85,3.35-86.21-28.49-39.49-58.19-77.96-83.92-119.51-17.52-28.27-36.47-28.04-57.22-1.71-11.73,14.88-22.9,14.85-37.04,5.2-14.43-9.84-23.05-23.85-30.32-39.21-14.91-31.52-33.23-37.35-63.97-20.83-20.3,10.91-30.64,27.72-34.21,50.68-3.93,25.33,2.67,50.22.48,75.2-1.79,20.54-8.32,41.21-30.91,45.77-21.32,4.31-35.11-12.26-40.24-30.02-12.12-41.97-40.06-58.58-81.34-58.37-4.54.02-9.1-.82-13.63-1.44-53.55-7.26-68.86-37.88-42.03-85.07,24.94-43.87,64.43-67.57,112.37-78.93,17.71-4.2,36.22-5.59,52.67-14.21,11.6-6.08,23.97-12.83,24.03-27.86.06-15.32-12.24-22.48-24.59-26.82-30.66-10.8-53.97-30.48-73.19-56.03-5.46-7.26-11.85-14.05-18.76-19.94-15.44-13.14-27.39-9.11-34,10.45-3.76,11.14-4.18,22.63-2.87,33.91,2.57,22.08-8.3,30.23-28.62,31.46-57.09,3.46-114.27,6.26-171.37,3.47-64.22-3.14-127.24-13.27-184.61-45.29-29.27-16.33-59.66-18.45-89.81-3.95-47.14,22.67-95.16,21.87-144.83,10.52-51.83-11.83-103.51-25.74-157.48-24.11-49.87,1.5-96.14,14.99-137.63,42.84-22.71,15.24-23.17,29.67-3.63,48.02,3.06,2.87,8.4,4.05,8.04,11.05-17.61,8.92-37.31,9.98-56.75,12.12-32.98,3.61-57.07,24.76-60.18,52.76-1.88,16.91,4.54,27.55,21.87,31.75,17.64,4.27,32.84-2.04,48.45-8.35,12.03-4.86,23.82-13.83,38.56-5.55-1.36,11.73-9.03,18.19-16.58,24.3-24.49,19.84-50.17,38.68-74.89,57.68-51.04,39.21-110.29,65.21-178.33,68.06-76.86,3.22-153.75,5.49-230.62,8.35v13.72c67.81,2.94,135.47-1.63,203.2-3.4,67.2-1.75,129.55-16.92,185.44-54.98,17.86-12.16,36.71-16.74,58.24-13.87,33.76,4.5,64.66-4.13,93.65-21.91,21.36-13.1,42.54-26.73,66.3-35.54,73.18-27.13,162.9,1.06,195.87,64.43,16.84,32.37,30.84,65.96,54.78,94.23,6.75,7.97,9.38,18.79,11.97,29.31,8.7,35.4-6.79,65.04-19.94,96.05-32.94,77.69-30.01,152.72,23.15,221.48,12.65,16.36,19.85,33.91,22.58,53.82,10.36,75.46,43.93,140.14,92.24,197.86,6.8,8.12,14.91,15.2,22.76,22.38,3.99,3.65,8.81,6.44,14.4,2.73,5.28-3.5,6.07-9.19,4.4-14.25-4.76-14.4-9.13-29.14-15.9-42.62-16.37-32.61-34.53-64.33-50.88-96.95-5.72-11.42-11.5-23.8-9.35-40.87,16.87,16.5,25.64,34.1,33.47,52.02,11.87,27.16,22.54,54.83,34.23,82.06,17.82,41.5,38.04,81.6,73.37,111.55,36.19,30.67,76.43,47.32,124.29,31.81,9.45-3.06,16.77-2.07,22.64,4.7,34.79,40.11,91.7,50.22,125.01,92.71,7.8,9.95,21.64,13.9,33.88,18.2,17.21,6.04,34.6,11.56,51.89,17.39,34.57,11.65,42.27,30.19,25.53,62.8-4.49,8.75-10.54,16.7-15.91,25-37.68,58.32-46.04,119.48-19,184.63,14.89,35.88,38.13,65.61,64.88,93.07,19.13,19.64,39.01,38.63,57.16,59.15,39.43,44.57,58.76,95.45,45.61,155.73-5.84,26.74-11.61,53.51-16.47,80.43-12.74,70.59-17.09,141.05,14.15,208.33,11.89,25.6,13.18,50.87,9.52,77.8-6.99,51.4,2.49,100.48,27.07,145.61,24.09,44.21,63.31,69.01,113.17,75.96,12.15,1.69,25.6.83,31.72-12.32,5.99-12.85-3.86-21.26-12-29.34-4.32-4.29-9.15-8.06-13.52-12.3-32.08-31.12-32.99-41.06-7.21-77.46,23.24-32.81,23.37-58.89.6-92.61-9.31-13.79-21.06-26.07-24.99-43.14-6.04-26.25,11.16-49.71,37.81-50.55,6.84-.21,13.7.52,20.55.83,14.27.65,27.81-.68,35.06-15.5,6.74-13.77.12-25.07-7.76-35.75-24.95-33.81-23.41-38.34,17.67-50.51,5.83-1.73,11.61-3.68,17.48-5.25,38.44-10.28,62.7-35.35,76.64-71.95,9.27-24.33,12.99-49.99,19.73-74.91,8.01-29.61,23.75-52.91,55.02-61.58,53.36-14.8,80.83-54.15,84.76-104.75,4.1-52.77,20.17-98.32,47.11-143.01,30.74-50.99,15.12-92.03-39.92-115.96ZM2120.35,1769.98c-9.29,17.45-19.98,34.18-29.08,51.73-11.45,22.08-14.51,46.13-15.22,70.77-1.78,61.99-25.19,94.92-83.06,116.9-31.08,11.81-49.43,34.71-58.31,65.63-5.66,19.71-9.22,40-14.45,59.85-11.62,44.08-37.57,74.03-83.92,83.43-5.94,1.21-11.83,2.93-17.54,4.98-38.3,13.7-44.75,35.11-20.74,67.17,5.65,7.54,16.82,14.61,10.89,25.36-5.72,10.37-17.34,6.45-27.15,5.22-23.7-2.97-44.11,3.14-57.9,23.73-14.07,20.99-13.51,43.36-1.86,64.94,6.83,12.65,16.32,23.83,24.34,35.85,14.27,21.4,15.74,44.9-.87,63.71-37.85,42.87-35.05,64.83,13.92,111.65,4.28,4.09,10.08,7.12,10.77,15.69-7.2,4.74-15.06,2.74-22.87.6-47.13-12.89-81-40.72-98.44-87.18-15.58-41.5-20.83-84.12-13.23-127.89,3.08-17.74,4.22-35.7-3.99-51.54-43.25-83.48-33.93-169.44-14.17-256.23,4.38-19.25,8.43-38.67,11.03-58.22,7.95-59.75-10.83-111.28-50.96-155.21-20.54-22.48-42.95-43.24-63.74-65.52-44.54-47.73-76.1-100.79-68.5-169.82,3.16-28.67,12.56-54.68,28.77-78.38,10.33-15.1,20.94-30.18,25.43-48.22,7.77-31.18-4.24-54.22-34.32-65.34-17.81-6.59-36.09-11.88-54.12-17.87-21.36-7.11-40.91-16.65-52.48-37.61-3.83-6.94-10.81-10.7-17.97-13.45-32.56-12.52-60.07-32.64-85.27-56.24-13.81-12.94-27.64-17.82-47.35-10.12-29.07,11.35-56.99,2.27-82.61-13.42-33.64-20.61-56.64-50.69-72.71-85.98-17.63-38.74-33.77-78.16-50.87-117.15-8.28-18.87-18.24-36.93-31.97-52.45-7.14-8.07-16.1-16.03-27.78-10.95-12.88,5.6-9.28,17.8-7.49,28.1,5.99,34.46,24.5,63.57,40.78,93.62,9.28,17.12,20.82,33.19,24.65,53.02-33.57-38.22-59.4-81.08-74.72-129.6-6.83-21.65-10.69-44.31-14.83-66.71-3.54-19.18-11.02-35.83-23.25-51.21-49.45-62.17-52.83-130.45-23.91-201.85,10.55-26.04,24.18-50.7,25.09-79.9.89-28.7-6.76-54.25-24.79-76.39-14.05-17.26-26.66-35.36-33.88-56.48-37.29-109.08-172.49-128.78-243.69-91.37-24.24,12.74-47.77,26.83-71.98,39.63-24.31,12.85-49.98,16.05-79.82,8.6,13.65-16.19,29.25-22.86,43.21-31.8,14.86-9.53,29.17-19.86,37.07-36.27,8.63-17.93.1-32-19.7-33.44-17.56-1.28-32.16,8.07-47.94,13.3-12.64,4.19-29.72,13.5-36.99-1.38-7.36-15.06,6.92-28.11,19.57-37.05,10.84-7.66,24.21-8.85,37.11-9.98,16.83-1.47,33.24-4.95,48.77-11.22,20.64-8.33,22-21.49,4.44-35.27-5.23-4.11-12.46-6.07-14.63-14.25,4.83-12.13,16.65-16.56,27.08-22.3,62.24-34.21,128.16-34.51,195.44-20.38,37.19,7.82,74.02,16.98,111.9,21.85,33.7,4.34,65.67.39,95.89-13.46,37.05-16.99,70.75-14.07,106.35,5.78,50.26,28.03,106.67,35.9,163.15,37.95,56.32,2.04,112.81.71,169.19-.49,52.29-1.11,60.32-9.99,62.09-61.51.22-6.5-1.8-13.84,7.12-21.25,16.12,17.37,32.37,34.78,48.52,52.29,16.97,18.39,42.44,23.03,63.27,37.53-13.27,19.81-33.37,21.37-52.35,25.05-58.83,11.4-107.73,38.08-136.57,92.75-29.74,56.38-10.35,94.51,52.01,105.68,3.75.67,7.51,2.39,11.19,2.18,40.46-2.33,64.5,15.48,78.23,54.45,9.93,28.16,32.35,38.31,55.32,34.45,23.08-3.88,40.7-23.02,43.24-52.17,2.04-23.34-.52-47.05-.18-70.59.31-21.67,6.86-40.45,27.87-51.26,19.96-10.27,30.26-7.26,39.38,13.48,9.47,21.54,22.08,39.9,43.87,50.57,18.56,9.08,34.54,8.02,48.85-9.11,17.26-20.67,23.77-20.88,36.38,1.36,23.07,40.67,53.64,75.73,80.59,113.49,20.38,28.55,13.97,57.83-13.52,73.71-62.34-56.43-153.48-53.58-206.7,6.87-10.48,11.9-22.52,24.93-13.18,42.59,9.33,17.62,26.94,19.01,43.96,16.64,15.73-2.19,30.99-7.54,46.59-10.88,11.03-2.36,21.97-6.45,33.66-3.07,6.8,1.97,14.03,3.94,15.01,11.95.83,6.78-4.88,10.97-10.04,14.18-33.78,21.03-70.22,22.41-107.98,14.38-39.91-8.49-50.07-4.16-71.98,30-18.97,29.59-32.99,61.69-47.07,93.72-13.24,30.14-30.52,55.56-63.45,67.91-20.82,7.81-27.98,26.46-29.36,47.69-1.4,21.55,2.86,42.48,6.53,63.45,2.05,11.75,3.56,23.31,1.43,37.7-10.58-6.78-12.66-15.88-16.68-23.48-7.45-14.1-13.28-29.25-22.17-42.35-18.63-27.46-39.26-32.9-68.69-17.7-17.15,8.85-33.38,11.62-52.48,7.46-60.55-13.21-117.38,32.23-126.97,100.7-2.75,19.67-3.17,39.44,2.8,58.85,14.25,46.37,47.12,60.19,89.83,37.82,17.85-9.35,33.91-23.03,55.21-24.28,6.88,10.43-.82,18.36-3.07,26.6-3.4,12.47-8.06,24.54-7.72,37.78.72,27.93,15.19,37.29,40.24,25.8,8.3-3.8,16.3-8.29,24.76-11.68,6.32-2.53,13.72-4.75,19.44.55,6.19,5.74,2.97,12.86-.22,18.93-12.95,24.64-18.87,49.46,3.92,71.27,27.65,26.46,61.02,36.24,98.77,27.41,14.24-3.33,26.97-10.83,38.39-19.7,38.5-29.89,76.71-27.18,116-1.44,25.33,16.59,49.35,36.41,80.82,40.75,16.57,2.28,33.41,2.63,49.96,5.02,56.6,8.17,101.33,51.81,111.54,108.1,8.15,44.95,24.94,60.64,70.77,60.1,39.72-.47,77.07,7.93,113.35,22.57,50.12,20.23,60.89,49.89,35.65,97.29Z"/>
  <path d="M4453.63,1816.47c9.5-2.13,20.84-4.34,20.11-17.6-.64-11.58-11.64-10.19-19.24-12.18-5.84-1.52-12.03-1.73-18.07-2.52-32.46-4.25-64.72-9.34-96.49-17.56-26.13-6.76-46.99-20.9-64.09-41.35-15.07-18.03-26.5-35.43-26.19-62.1.52-45.17-22.83-82.34-51.57-116.46-18.13-21.52-33.23-45.34-36.26-74.89-1.44-14.07,3.7-23.59,15.27-30.33,12.26-7.14,20.4,1.25,27.76,8.75,10.65,10.85,19.68,23.34,30.57,33.92,24.22,23.53,52.45,19.48,67.2-10.77,16.86-34.56,17.06-68.99-8.01-100.82-8.48-10.76-17.88-20.95-25.16-32.48-17.64-27.95-7.71-46.88,25.13-49.5,12.9-1.03,25.89-1.46,38.71-3.13,101-13.14,156.47-117.43,110.76-207.75-8.91-17.6-20.2-34.08-25.89-53.23-5.06-17.03-7.47-34.88,12.15-43.48,18.36-8.05,33.63-1.55,43.98,16.85,8.81,15.65,21.77,26.98,39.91,31.92,15.3,4.17,29.16,2.77,39.74-9.38,10.45-11.99,4.1-24.08-2.09-35.92-9.86-18.83-23.97-35.34-30.19-56.16-7.34-24.54-2.04-43.83,20.25-51.04,49.36-15.97,75.03-55.33,100.11-95.38,23.65-37.76,29.14-79.39,20.92-123.03-1.75-9.27-5.02-18.83.58-29.72,11.58,3.84,15.92,12.61,20.13,21.3,9.48,19.55,11.96,40.54,13.45,61.96,4.34,62.33-9.64,124.57-.59,186.87,6.29,43.3-4.53,75.16-52.74,85.94-12.78,2.86-24.26,12.43-35.8,19.77-19.41,12.34-37.15,26.83-50.05,46.15-5.42,8.12-11.17,17.29-4.35,27.43,7.02,10.43,17.64,7.97,26.99,5.13,36.8-11.19,72.86-25.9,98.14-55.5,25.58-29.95,52.84-61.14,46.2-105.89-1.89-12.76-4.62-25.4-7.13-38.07-11.14-56.23-9.55-58.83,47.04-71.02,42.33-9.12,76.58-29.25,96.22-69.52,2.1-4.31,4.49-7.76,8.78-9.93,27.35-13.77,37.27-39.05,42.64-66.61,6.29-32.3,14.99-63.49,31.28-92.46,22.4-39.83,22.05-40.18-21.64-52.81-10.23-2.96-18.49-6.94-19.41-19.12-.93-12.29,6.98-17.9,16.54-21.81,17.87-7.31,36.91-8.81,55.91-10.01,26.1-1.65,51.45-6.29,74.41-19.44,39.5-22.63,42.51-65.65,7.07-93.65-6.72-5.3-16.65-8.04-17.97-20.74,21.81-7.6,40.13,1.69,58.05,11.29,19.4,10.4,36.67,24.59,57.86,31.9,9.41,3.25,18.16,3.7,25.41-3.75,6.77-6.96,5.08-15.8,2.45-23.77-5.38-16.31-15.24-30.15-28.88-40.26-85.42-63.34-178.85-89.84-283.23-56.75-31.57,10.01-62.08,12.68-94.21,5.46-42.28-9.51-84.58-19.34-127.3-26.42-70.25-11.65-140.28-18.57-208.51,12.99-44.63,20.64-61.77,15.38-92.89-22.9-18.63-22.91-41.69-38.17-70.84-42.1-29.54-3.98-59.44-4.01-88.79,1.83-50.72,10.09-101.19,21.4-151.87,31.67-12.12,2.45-25.09,6.36-36.57-3.68,3.82-12.65,14.88-15.59,24.17-19.83,19.35-8.83,39.79-15.45,58.58-25.27,21.49-11.24,23.27-31.91,5.42-48.36-12.74-11.74-28.92-16.12-45.54-19.47-25.63-5.17-51.58-3.82-77.43-4.93-23.73-1.02-44.45-7.02-56.71-31.04-20.49-40.16-76.03-51.76-112.98-24.76-19.61,14.32-18.09,34.9,4.34,43.9,11.79,4.73,25.03,5.92,37.66,8.47,11.18,2.25,23.83,3.05,28.07,15.86,4.54,13.71-5.08,23.18-13.86,31.49-5.37,5.08-12.59,8.4-19.32,11.82-27.93,14.18-57.58,23.71-87.69,31.95-31.44,8.6-54.1,26.75-64.97,58.44-2.6,7.59-4.09,16.47-12.39,20.8-9.63-.62-14.26-8.27-20.45-13.65-18.65-16.21-31.59-12.33-37.43,11.39-2.96,12.02-2.62,25.12-11.76,36.35-7.78-21.16-14.81-41.14-22.54-60.86-3.7-9.43-9.24-18.32-21.13-17.95-11.05.35-17.75,7.81-22.6,16.98-6.14,11.63-9.08,24.1-9.88,37.21-.9,14.67-8.24,21.5-23.64,21.14-32.21-.74-61.38-11.23-88.23-27.68-20.18-12.36-22.26-40.15-5.99-57.42,11.25-11.94,25.64-19.02,40.76-24.5,22.87-8.29,46.11-15.56,68.81-24.28,10.89-4.18,26.41-7.44,24.05-23.04-2.39-15.8-18.73-14.72-29.92-14.61-71.44.73-129.29,30.92-173.96,85.69-14.4,17.66-17.43,39.16-3.19,59.43,13.8,19.64,34.71,21.82,55.4,16.76,11.62-2.84,19.54-.91,29.58,4.22,22.42,11.45,46.49,18.83,71.61,22.21,32.97,4.44,45.99-5.31,52.11-37.74,2.4-12.74.74-27.65,16.31-37.11,15.76,19.53,17.58,43.73,25.29,65.42,4.73,13.31,11.85,27.09-2.21,39.93-13.9,12.69-29.45,14.32-46.75,9.26-20.43-5.97-40.92-11.75-61.47-17.27-84.27-22.64-162.94-20.66-233.77,41.19-32.92,28.75-77.05,35.19-120.73,32.73-10.5-.59-25.37-3.2-22.82-19.28,2.16-13.6,14.75-15.55,26.74-16.29,10.9-.68,18.12,7.26,27.17,10.87,11.36,4.53,22.67,6.05,31.74-3.65,9.16-9.78,6.69-21.04,1.07-31.85-8.48-16.3-22.61-23.61-40.26-26.3-29.53-4.5-57.58-13.93-84.42-27.07-79.32-38.84-178.74-6.46-217.96,72.24-14.38,28.86-33.71,51.91-60.42,69.78-12.54,8.39-24.31,18.61-34.43,29.8-21.48,23.75-24.24,51.79-13.44,81.08,8.91,24.19,24.57,28.55,46.63,14.9,9.95-6.15,17.41-17.86,31.73-15.5,5.38,12.7-3.26,23.87-3.33,35.9-.08,13.97-1.72,28.78,13.82,35.59,14.36,6.3,28.5,2.99,40.66-6.92,17.81-14.51,27.9-33.81,33.69-55.67,7.29-27.5,7.7-55.75,8.78-83.87,1.56-40.67,41.83-86.01,77.62-74.39-4.38,18.82-21.72,28.64-30.72,44.05-12.7,21.73-17.99,45.35-5,67.11,13.46,22.55,36.54,15.86,57.9,11.54,7.56-1.53,19.15-10.51,23.35,3.18,3.45,11.26-6.39,17.67-15.46,22.42-4,2.09-8.34,4.36-12.71,4.82-43.02,4.53-67.08,28.24-80.18,69.44-10.34,32.51-36.1,42.9-69.68,34.88-11.01-2.63-21.56-7.39-32.14-11.62-33.6-13.43-61.53-10.29-80.82,20.43-28.53,45.43-64.31,73.19-117.96,83.24-31.36,5.88-34.18,31.2-10.7,54.44,9.73,9.63,20.48,18.33,29.36,28.66,6.01,6.99,9.08,16.36,2.81,25.34-6.68,9.55-15.95,6.86-24.77,3.91-12.24-4.09-24.11-9.51-36.55-12.74-46.47-12.09-86.17,18.98-86.32,66.98-.03,10.66.21,21.33-.06,31.99-1.04,40.95,8.8,53.36,49.17,63.62,13.5,3.43,27.01,4.49,40.75,4.17,36.1-.86,54.53-15.89,61.23-51.74,2.98-15.94,10.33-28.12,22.59-38.27,10.53-8.72,21.8-17.16,30.2-27.75,21.2-26.69,51.43-19.12,78.46-21.44,15.76-1.35,15,18.71,24.16,27.09,9.53,8.72,17.22,19.71,27.51,27.28,14.69,10.81,22.1,21.87,12.26,39.84-5.82,10.62-3.67,21.02,5.79,28.76,10.38,8.49,21.36,6.04,31.86-.26,19.31-11.59,27.03-34.32,18.93-55.44-4.75-12.38-13.33-21.96-22.55-31.22-21.71-21.81-40.47-45.83-54.62-73.39,33.09,14.62,55.28,42.95,84.22,62.31,17.28,11.56,25.13,27.56,24.58,48.46-.38,14.53,2.03,29,9.43,41.84,11.06,19.18,36.77,25.72,53.29,14.08,15.88-11.19,15.61-26.44-.86-47.01-2.38-2.97-5.23-5.64-7.21-8.85-8.16-13.22-2.96-23.93,12.68-25.66,9.28-1.03,18.23.38,26.22,8.18-1.41,11.89-8.79,23.5-4.71,36.94,12.55,41.27,74.1,70.38,113.65,53.25,24.21-10.49,39.73.45,38.66,27.27-1.61,40.47-27.43,62.73-67.78,58.94-39.56-3.72-78.24-11.79-116.25-23.06-24.14-7.16-43.85-2.98-56.72,20.09-8.01,14.37-18.26,16.91-31.98,8.38-22.72-14.12-46.93-24.86-72.31-33.44-19.08-6.45-30.51-19.51-28.52-41.32,1.89-20.69-9.73-29.78-28.32-34.82-29.85-8.09-57.63-.81-84.53,10.29-38.43,15.87-77.99,25.07-119.48,27.49-33.75,1.96-61.54,16.3-72.66,49.66-11.93,35.76-34.45,61.93-63.13,84.53-26.67,21.01-44.15,48.77-51.41,81.56-7.05,31.86-11.6,64.34-15.96,96.72-5.03,37.41,2.9,72.77,21.3,105.58,20.17,35.97,44.38,69.17,70.81,100.79,24.35,29.14,55.94,38.48,92.23,32.8,24.76-3.87,49.08-10.5,73.81-14.61,26.87-4.46,54.41-11.59,80.36,2.98,9.52,5.34,18.64,8.83,29.62,10.11,29.24,3.42,40.02,19.11,30.78,47.55-11.34,34.91-4.7,65.9,14.76,95.42,7.12,10.8,14.25,21.64,22.01,31.99,31.49,42.01,41.29,86.74,21.34,137.22-23.2,58.74-19.64,117.33,3.95,175.64,19.11,47.25,43.86,91.87,62.1,139.59,22.04,57.68,56.58,75.44,115.41,56.78,56.15-17.81,107.09-46.21,130.37-105.09,7.97-20.17,14.99-39.01,32.11-53.68,11.58-9.92,20.37-23.02,12.04-40.33-17.47-36.29-14.39-57.7,14.29-85.46,17.48-16.92,37.22-31.49,55.15-47.97,26.56-24.43,37.6-54.36,30.64-90.62-3.45-18-8.51-35.43-14.15-52.79-18.7-57.6-7.47-96.89,38.66-136.45,13.3-11.4,27.04-22.36,39.69-34.45,36.17-34.54,66.74-73.25,83.61-121.02,11.03-31.22.88-44.23-32.62-43.59-21.33.41-42.7,2.6-63.95,1.66-45.63-2.01-80.23-31.66-83.26-75.51-2.29-33.26-15.54-59.62-35.39-84.53-24.85-31.19-45.91-64.56-54.93-104.1-3.06-13.4-6.55-27.09,1.46-42.98,4.51,7.33,8.33,12.11,10.65,17.52,18.96,44.32,44.65,84.71,71.41,124.57,19.23,28.65,33.48,59.58,39.98,93.85,10.18,53.62,39.31,69.35,88.65,44.46,46.17-23.29,90.68-50.03,132.02-81.41,23.57-17.89,41.16-40.7,49.07-69.75,11.37-41.8-12.7-69.6-55.72-64.36-8.99,1.1-17.98,3.33-26.6,6.17-15.09,4.97-28.98,1.94-41.4-6.38-28.41-19.03-38.72-49.85-52-78.68,20.53,8.43,34.8,23.1,48.72,38.3,17.45,19.05,37.79,30.08,64.97,24.18,16.97-3.68,33.6-.56,48.25,8.9,25.89,16.71,52.92,17.43,80.83,6.8,21.04-8.02,33.58-.31,40.29,20.04,2.14,6.49,4.85,12.8,7.38,19.15,13.8,34.59,25.71,39.76,61.22,27.06,3.92-1.4,8.08-4.87,14.22.28.4,27.46,1.71,56.26,7.6,84.6,12.49,60.04,30.39,117.92,68.52,167.34,7.27,9.42,15.81,20.99,29.47,18.65,14.95-2.57,18.09-17.18,21.88-29.46,9.68-31.34,5.33-63.46,4.4-95.35-.9-30.92,11.32-55.14,37.72-70.81,27.18-16.13,50.6-35.46,70.49-60.49,21.28-26.78,60.16-20.26,75.36,10.36,7.9,15.91,9.55,33.52,14.03,50.38,3.61,13.59,4.52,30.51,20.9,35.6,16.14,5.01,20.95-11.72,30.35-19.53,1.04-.86,2.8-.84,5.4-1.55,4.45,17.5,9.48,34.81,13.11,52.41,2.59,12.55,12.77,23.73,9.69,36.84-8.51,36.28,2.75,69.17,16.1,101.57,7,16.99,18.44,31.52,32.7,43.44,5.97,4.98,13.21,10.61,19.86,2.72,8.26-9.79-2.4-12.36-8.18-16.43-25.41-17.9-35.6-43.89-41.64-78.81,34.8,50.95,79.9,90.14,76.19,153.85-8.31-1.97-11.5-9.59-16.54-14.91-28.3-29.93-57.16-59.32-90.63-83.51-10.56-7.63-23.36-21.56-36.27-11.54-14.04,10.9-2.66,26.98,2.17,39.81,13.1,34.79,36.52,63.17,60.53,90.73,58.12,66.7,126.22,116.63,217.71,126.27,28.27,2.98,56.32,2.88,84.09-3.35ZM4571.28,1069.24c26.29-43.93,69.37-64.13,115.4-80.17-24.71,46.16-67.9,66.21-115.4,80.17ZM3382.32,266.5c-15.12,8.42-27.99,2.87-37.97-8.4-11.65-13.16-6.9-27.93,2.65-39.66,41.11-50.52,94.63-76.62,158.93-80.37.68,1.99,1.37,3.98,2.05,5.97-16.94,5.81-34.04,11.21-50.77,17.57-14.16,5.39-28.59,10.69-41.7,18.13-36.35,20.65-43.53,40.24-33.19,86.76ZM4421.1,965.98c-17.76,1.74-41.19-12.16-42.51-24.08-1.46-13.25,20.54-29.44,40.49-29.8,31.28-.55,44.25,14.52,44.47,53.93-15.31-3.25-28.82-1.39-42.45-.05ZM4777.6,793.83c-20.45,7.58-42.15,11.75-65.74,18.15,1.99-39.2,4.19-77.82-.09-116.3-2.71-24.43-7.13-48.37-23.27-68.03-11.39-13.87-23.22-21.65-43.13-11.12-16.43,8.7-35.7,13.14-55.12,12.92-44.17-.5-64.41-35-43.11-73.81,14.55-26.51,39.63-36.47,67.55-41.35,29.44-5.15,59.1-5.03,88.86-3.92,15.19.57,30.55.71,45.64-.83,37.47-3.81,66.21-20.84,81.63-56.89,6.94-16.22,14.74-32.14,32.77-39.1,15.83-6.12,22.08-1.29,19.05,15.46-4.57,25.27-15.41,48.41-32.54,67.02-49.38,53.64-46.86,110.18-18.28,173.06,30.26,66.58,15.11,99.03-54.21,124.73ZM3830.13,74.5c-11.15-1.21-22.53-1.42-30.88-10.74,26.94-31.14,76.47-27.62,93.06,7.45,13.44,28.43,35.14,40.13,64.96,41.2,32.59,1.17,65.72-.77,97,10.41,11.29,4.03,27.91,6.15,24.94,29.19-68.17-29.7-136.19-14.77-204.67-8.02,15.63-46.69,3.72-64.26-44.41-69.48ZM2814.06,870.26c18.28,21.2,36.98,42.09,54.22,64.12,17.65,22.54,10.46,42.77-15.68,47.79-.71-1.3-2.31-3.08-1.91-3.86,16.89-33.63-3.5-51.94-26.73-71.54-24.52-20.7-28.9-33.01-29.17-57.15,10.58,3.71,13.38,13.81,19.27,20.65ZM4149.95,1441.9c-8.71-14.95-9.11-32.04-13.42-47.93-3.91-14.4-2.55-33.06-20.47-37.54-16.37-4.08-20.36,15.52-32.14,23.39-10.41-9.51-8.42-23.39-12.18-34.98-3.49-10.8-5.04-22.23-8.6-33-8.18-24.72-25.99-39.86-51.36-42.94-24.03-2.92-45.81,5.44-60.13,25.65-14.95,21.1-33.72,37.04-56.01,49.37-40.1,22.18-54.99,57.07-51.07,101.33,2.83,31.99,1.78,63.41-11.7,97.51-23.5-18.83-35.27-41.14-45.16-63.96-24.95-57.61-42.47-117.09-41.8-180.86.33-32.03-9.38-38.1-38.81-26.6-24.54,9.59-29.13,7.46-38.57-17.88-3.18-8.55-5.89-17.31-9.62-25.61-10.23-22.71-25.71-32.51-49.44-24.71-32.01,10.53-60.68,8.26-89.28-9.03-12.84-7.76-27.83-7.49-42.3-4.74-24.11,4.59-42.92-2.53-58.04-22.25-13.53-17.65-30.31-32.06-50.42-42.2-8.36-4.22-17.22-8.33-25.53-1.45-8.44,7-3.2,16.17.06,23.17,8.65,18.58,17.45,37.32,28.48,54.53,26.38,41.15,53.85,51.68,100.87,39.58,17.24-4.44,33.85-6.56,46.08,8.79,11.85,14.88,3.91,30.69-2.2,45.28-10.03,23.96-28.32,41.29-49,56.07-37.86,27.06-77.97,50.57-119.47,71.42-39.81,19.99-57.85,9.88-64.28-33.99-5.32-36.33-22.02-67.88-41.44-98.01-25.99-40.32-52.42-80.29-71.02-124.78-2.04-4.88-4.81-9.55-7.84-13.9-5.9-8.48-13.02-15.57-24.61-12.27-11.44,3.26-14.84,13.26-15.13,23.22-.73,25.43,5.57,49.78,14.6,73.36,12.12,31.66,31.58,58.94,52.41,85.28,13.92,17.6,24.07,36.13,26.04,59.49,6.75,80.35,61.99,102.66,130.88,100.97,11.4-.28,22.75-2.44,34.15-2.72,21.69-.53,24.32,3.07,16,24.03-22.86,57.64-63.08,101.8-110.89,139.68-40.06,31.73-65.38,70.6-58.4,123.77,2.65,20.17,9.32,39.9,15.08,59.56,16.7,57,9.68,80.02-36.03,117.85-14.65,12.13-29.8,24.01-42.56,37.98-25.55,27.97-36.41,59.9-17.14,96.03,6.19,11.6,1.6,19.42-6.34,25.87-18.69,15.18-27.23,35.69-34.56,57.75-17,51.11-102.64,106.34-155.83,101.52-19.18-1.74-37.73-8.01-45.27-26.34-28.33-68.82-67.63-133-87.98-205.11-10.85-38.45-9.46-77.9,5.94-114.38,27-63.98,15.05-120-26.92-172.48-8.52-10.65-15.49-22.59-22.73-34.21-11.5-18.44-13.6-37.44-7.02-58.84,15.04-48.96.79-61.44-46.69-81.26-55.9-23.34-107.27-11.32-160.39.8-47.67,10.88-86.32,2.49-115.41-40.94-22.85-34.12-49.24-65.8-65.45-104.1-18.42-43.53-5.69-86.83-.45-130.45,5.93-49.32,25.28-90.2,66.17-120.15,24.58-18,41.71-42.03,51.36-71.1,9.67-29.12,29.25-45.45,60.36-47.2,46.08-2.59,90.03-14.11,132.46-31.87,20.11-8.42,40.93-11.14,62.62-8.65,12.06,1.38,20.02,5.52,20.15,19.43.33,35.33,21.46,53.69,53.03,62.59,21.57,6.08,39.84,18.69,59.55,28.49,25.36,12.61,36.81,10.51,51.55-13.7,10.5-17.24,22.75-19.5,40.25-14.13,41.58,12.77,83.97,21.99,127.65,23.08,48.85,1.22,84.96-43.72,74.28-91.68-6.11-27.45-29.12-39.4-55.58-28.88-34.47,13.71-73.38.29-92.24-32.52-6.58-11.45-6.94-22.6,9.41-26.12,21.86-4.71,41.7-13.77,60.85-25.07,15.03-8.88,30.67-6.39,46.13.02,18.23,7.57,36.45,15.18,54.93,22.1,14.02,5.25,28.3,4.58,42.51-.39,28.51-9.96,37.21-32.61,19.32-57.26-23.06-31.77-52.06-58.11-87.55-75.27-37.44-18.11-74.33-10.65-109.1,9.36-15.04,8.65-22.42,22.46-21.49,40.07.69,13.12.14,25.79-7.57,37.27-7.11,10.59-13.76,19.42-29.34,13.25-7.3-2.89-16.65-1.72-24.9-.83-23.04,2.48-34.28,22.01-24.8,43.12,2.75,6.13,7.84,11.17,11.57,16.9,4.54,6.98,15.81,14.17,3.4,22.43-10.67,7.1-20.86,1.94-27.55-7.74-9.14-13.23-7.73-29.35-8.78-44.24-1.38-19.76-9.1-34.99-24.35-46.94-22.77-17.84-46.02-35.05-66.7-55.48-5.8-5.73-13.55-9.97-21.1-13.36-33.96-15.26-52.33-3.68-53.3,35.82-10.44,0-20.98-.23-31.5.05-24.7.64-46.12,8.61-62.64,27.93-4.92,5.75-10.3,11.53-16.55,15.65-22.96,15.13-37.17,35.57-40.8,63.02-2.45,18.58-14.12,27.83-31.58,31.09-25.76,4.81-49.87-1.07-72.96-12.1-6.4-3.06-11.76-8.61-11.72-15.88.13-24.25-1.47-48.94,2.58-72.61,4.39-25.64,38.05-39.89,66.82-31.18,10.88,3.29,21.39,7.96,31.8,12.6,16,7.12,30.22,4.48,41.29-8.59,10.56-12.46,8.7-27,2.49-40.87-6.78-15.15-20.23-24.39-32.29-34.87-16.96-14.72-16.52-26.72,4.1-29.84,55.95-8.47,92.17-40.29,122.44-85.6,17.58-26.31,35.95-27.33,66.31-15.83,8.53,3.23,16.99,6.72,25.69,9.4,43.66,13.47,79.23-.68,94.28-43.45,12.26-34.87,31.08-55.31,68.8-59.37,16.62-1.79,31.19-11.95,39.29-28.4,10.8-21.94-1.1-40.71-25.37-38.88-9.75.74-19.29,4-28.97,5.87-24.62,4.77-34.87-4.44-32.23-29.18,1.41-13.23,6.8-24.79,15.65-34.84,7.04-7.99,14.05-16.06,20.36-24.61,6.89-9.34,13.45-19.78,6-31.37-7.34-11.43-19.83-9.97-31.2-8.75-37.31,4.01-67.64,36.31-77.41,79.84-6.39,28.47-.88,57.86-8.57,86.18-5.68,20.93-12.68,40.82-30.17,54.95-6.52,5.27-14.03,10.41-22.82,5.01-8.52-5.23-5.11-13.18-3.44-20.55,2.02-8.9,4.58-17.75,5.67-26.78,2.85-23.47-12.38-34.95-33.95-25.38-7.53,3.34-14.08,8.95-20.95,13.7-17.87,12.34-27.16,8.36-30.73-13.62-3.38-20.76.84-39.69,16.35-54.58,9.85-9.45,20.48-18.24,31.54-26.26,28.34-20.55,49.71-46.22,65.18-77.9,32.06-65.68,124.09-95.7,189.29-63.35,28.07,13.93,57.72,23.13,88.65,28.78,15.86,2.9,34.11,5.37,32.99,28.51-7.27,5.49-12.4,1.1-17.51-1.72-10.3-5.69-21.34-8.27-32.94-7.55-21.56,1.34-39.09,16.24-40.32,33.69-1.21,17.11,12.05,31.68,35.79,34.06,50.97,5.11,101.1-3.67,139.69-37.3,64.47-56.16,135.66-58.26,212.19-38.43,25.74,6.67,50.98,15.46,76.9,21.26,29.83,6.67,53.36-9.29,64.31-37.31,9.19-23.53,20.87-46.08,24.94-72.15,46.69,31.01,46.92,31.12,70.22-18.48,9.39-20,24.22-32.55,45.35-38.48,35.91-10.07,69.71-29.97,105.16-36.49,67.67-12.46,137.1-25.34,211.58-5.08-23.06,10.84-41.59,18.76-59.33,28.16-10.82,5.73-21.64,13.6-17.97,28.46,3.85,15.57,17.1,18.06,30.55,18.4,33.23.85,64.41-10.36,96.37-16.94,46.16-9.5,91.83-21.72,139.65-20.55,35.57.87,64.43,12.77,87.11,41.65,28.99,36.92,59.96,48.61,98.02,30.24,76.39-36.87,153.84-29.3,232.4-13.96,41.03,8.02,81.94,16.7,122.75,25.76,28.59,6.35,55.74,2.26,82.92-7.28,98.21-34.49,185.3-6.56,266.73,49.33,13.74,9.43,24.36,22.8,28.6,41.43-19.04,1.46-31.39-10.99-45.11-19.21-23.7-14.2-47.1-28.34-76.42-25.69-10.1.91-20.38,1.6-24.68,12.7-4.52,11.67,1.12,20.65,9.6,28.18,4.55,4.04,9.45,7.69,14.2,11.5,25.92,20.78,24.69,47.05-3.4,64.77-23.34,14.72-49.94,17.81-76.62,19.6-16.05,1.07-31.87,2.88-47.1,8.1-18.46,6.32-33.12,16.63-33.06,38.49.05,18.85,15.76,33.18,39.56,37.57,4.31.8,8.65,1.43,16.5,2.71-27.22,45.21-39.35,93.6-51.26,142.14-3.25,13.26-10.81,24.71-25.88,32.51-3.1-29.06-14.91-53.47-25.36-78.46-18.51-44.27-15.44-85.98,16.81-123.73,17.95-21.01,32.56-44.24,40.21-71.01,4.79-16.76,11.48-37.1-6.33-48.14-18.28-11.34-36.61-.34-51.9,12.25-9.63,7.93-15.99,18.69-20.25,30.06-15.05,40.22-46.71,53.84-86.24,54.86-42.56,1.09-85.37-4.74-127.6,4.76-24.27,5.46-46.27,15.06-62.78,34.66-18.49,21.95-23.36,58.31-10.78,81.48,11.7,21.54,41.77,34.36,71.64,29.71,12.68-1.97,25.11-5.54,38.49-8.58,13.11,38.63,16.26,77.12-1.15,113.86-22.6,47.73-48.51,92.84-103.65,112.17-27.45,9.62-36.75,34.34-31.09,63.36,4.83,24.74,20.16,44,31.92,65.19,3.45,6.21,9.87,13.27,2.14,20.51-6.25,5.85-14.47,5.41-21.54,2.2-18.07-8.19-32.97-19.39-33.38-41.94-.13-6.85-.32-13.75-1.26-20.52-6.63-47.74-52.27-70.77-94.78-47.71-13.99,7.59-24.43,18.03-24.63,35.61-.21,18.17,11.8,27.03,25.61,34.52,4.63,2.51,9.75,4.1,15.78,6.58-9.38,28.06-2.43,53.97,10.15,79.04,4.78,9.52,9.74,18.94,14.57,28.43,42.34,83.28-15.84,180.38-110.3,183.96-14.43.55-28.9-.28-42.95,4.59-26.8,9.29-36.41,28.59-27.67,55.57,6.55,20.22,21.49,34.76,33.67,51.19,19.07,25.73,20.33,59.06,3.92,85.48-9.36,15.07-20.5,17.78-33.46,5.49-9.92-9.41-18.61-20.1-28-30.08-27.25-28.95-43.86-29.62-73.69-2.56ZM3064.52,850.68c-1.12-10.73,6.77-16.5,14.95-20.96,33.7-18.39,67.76-21.43,101.83-1.02,25.79,15.45,46.48,36.78,66.12,59.11,6.01,6.83,11.95,15.11,7.16,24.77-4.87,9.82-14.66,12.3-25.01,13.17-19.87,1.67-37.45-5.27-54.42-14.21-34.83-18.35-68.75-23.06-102.52,3.18-8.77,6.82-20.33,9.69-37.54,10.51,22.38-23.89,32.3-46.9,29.41-74.54ZM4103.4,1583.85c11.84,2.15,19.52,9.11,27.01,15.59,39.79,34.38,78.76,70.34,109.94,112.32,37.4,50.35,86.42,74.43,146.23,82.15,13.49,1.74,26.93,3.92,47.48,6.93-130.47,17.54-296.57-92.83-330.67-216.99Z"/>
  <path d="M4936.19,2037.03c-35.03-42.73-65.64-87.73-78.44-142.69-2.78-11.92-8.43-22.95-16.62-32.2-9.17-10.35-19.69-22.07-34.73-14.86-13.9,6.66-8.86,20.99-6.84,32.81,3.11,18.18,4.53,36.18-1.44,54.15-8.05,24.22-15.59,26.94-35.42,12.3-25.17-18.59-37.01-42.07-26.36-73.4,6.28-18.47-1.42-26.81-19.33-30.25-44.61-8.56-69.41,1.84-94.47,44.82-10.8,18.53-20.19,21.74-39.11,10.72-38.61-22.5-51.2-18.6-68.74,21-19.35,43.69-49.64,68.09-98.94,71.9-49.17,3.8-72.07,33.38-71.81,82.7.15,27.45,10.31,52.01,20.23,76.69,8.48,21.11,12.09,41.83,3.7,64.23-10.04,26.82,4.99,48.36,33.69,50.79,19.66,1.66,37.55-4.93,55.36-11.64,43.35-16.35,85.48-36.15,131.13-45.95,54.04-11.59,89.88,3.89,117.1,51.28,9.51,16.56,19.29,32.8,32.6,46.66,45.14,47.01,108.42,55.74,156.59,18.29,57.32-44.57,83.42-106.65,92.27-175.52-1.44-10.27-2.36-18.58-3.79-26.79-5.85-33.63-25.83-59.67-46.64-85.06ZM4955.94,2207.39c-13.31,33.44-29.46,65.12-56,90.43-46.43,44.28-110.49,41.8-152.98-6.73-8.94-10.2-16.23-22.04-23.09-33.82-36.3-62.3-77.73-79.75-149.04-63.17-43.24,10.05-82.82,29.85-124.16,44.93-14.27,5.2-28.47,11.26-43.93,11.3-19.51.04-30.07-12.32-22.63-29.15,11.63-26.3,5.36-50.7-3.47-75.24-7.46-20.74-15.97-41.08-19.52-63.01-6.56-40.61,13.47-70.25,54.3-73.82,55.92-4.88,92.83-32.28,115.08-83.21,11.88-27.2,17.66-27.8,43.55-13.93,36.45,19.53,41.35,18.23,63.44-16.83,22.84-36.25,37.96-42.74,79.69-34.21,2.89,3.24,2.17,6.96,1.44,10.69-8.42,42.55,6.42,74.81,43.89,95.44,21.52,11.85,38.27,6.86,48.43-15.74,7.9-17.57,11.02-36.28,8.28-55.69-1.26-8.95-2.11-17.96-3.68-31.62,17.94,10.22,23.52,23.95,26.74,37.46,12.48,52.48,40.17,96.42,73.75,137.43,8.19,10,15.42,20.78,23.42,30.93,33.53,42.53,35.95,88.76,16.52,137.57Z"/>
  <path d="M2387.25,277.45c24.1-30.98,36.92-62.45,16.93-102.9-18.58-37.59-.46-69.32,40.25-79.48,15.99-3.99,30.46-9.53,40.94-22.8,15.74-19.93,10.85-39.8-12.97-49.19-17.91-7.07-36.61-10.36-55.83-4.81-27.96,8.06-55.33,5.78-83.07-2.47-21.06-6.26-42.76-10.89-64.48-14.29-40.3-6.3-76.65,8.2-111.88,25-37.53,17.9-75.51,26.57-117.07,16-77.11-19.62-147.52,1.55-214.69,38.25-22.36,12.21-41.36,28.9-52.34,52.57-6.92,14.92-10.74,31.21,1.87,44.95,11.64,12.68,26.43,8.88,40.33,3.36,16.78-6.67,33.72-9,51.31-3.85,60.21,17.65,102.92,82.75,93.94,144.74-2.42,16.69-3.45,33.27-3.04,50.02,0,9.14-.64,18.33.11,27.4,4.29,52.04,22,97.97,63.93,131.5,28.26,22.6,54.89,16.11,70.08-16.98,7.25-15.78,12.5-32.65,17.05-49.46,10.73-39.67,35.4-66.06,72.83-82.19,30.82-13.28,62.93-22.57,94.7-32.92,43.61-14.2,82.48-35.66,111.1-72.45ZM2267.79,334.77c-30.42,9.61-60.86,18.94-90.47,31.07-43.09,17.65-71.37,47.61-84.26,92.52-4.8,16.73-10.1,33.59-17.61,49.22-11.16,23.26-25.59,26.22-45.3,9.67-41.55-34.89-55.77-82.31-57.3-134.14-.65-21.91,2.5-44.01,4.85-65.92,7.7-71.83-51.79-148.74-123.66-159.87-16.83-2.61-31.31,4.28-46.4,9.21-7.06,2.3-14.74,7.35-20.74-.83-4.89-6.67-3.6-14.64-.17-21.74,9.94-20.55,25.72-36.2,45.22-47.07,63.3-35.27,129.72-57.16,203.13-38.58,41.03,10.38,79.79,5.47,117.77-11.65,11.77-5.31,23.82-10.02,35.7-15.08,38.59-16.43,77.7-19.19,117.83-5.64,36.51,12.33,73.2,18.01,112.06,8.94,20.28-4.73,42.46-4.06,60.41,13.7-7.3,19.26-21.28,27.43-37.52,29.44-46.21,5.73-74.2,53.21-53.67,100.58,17.55,40.5,4.08,68.83-21.39,96.77-26.86,29.47-60.91,47.55-98.49,59.42Z"/>
  <path d="M5694.22,1726.19c-66.25-1.87-132.5-3.07-198.43,5.6-88.97,11.69-176.75,30.85-265.88,41.79-79.91,9.81-156.45,6.32-225.19-42.48-14.13-10.03-30.13-17.74-47.3-22.18-28.22-7.3-42.32-.42-53.15,26.66-34.63-22.25-69.89-43.18-108.36-57.99-12.1-4.66-24.65-10.23-37.59-6.32-19.38,5.86-37.58,1.95-56.04-3.18-16.1-4.47-32.25-8.75-48.4-13.06-9.16-2.44-19.37-4.25-24.38,5.67-5.47,10.85,2.5,18.63,10.33,25.18,16.03,13.42,34.56,22.49,54.63,27.41,26.7,6.54,42.89,21.61,52.08,48.22,13.06,37.85,30.9,46.91,70.36,39.31,20.52-3.95,39.05-1.58,57.13,8.65,18.55,10.5,37.78,19.96,58.56,24.97,11.45,2.76,25.19,7.12,33.98-4.78,8.79-11.89,1.05-23.72-5.59-33.62-9.72-14.49-21.49-27.6-31.62-41.85-5.41-7.62-8.8-17.09-2.3-25.48,5.8-7.49,14.62-6.06,23.2-4.27,22.93,4.8,41.59,18.36,61.45,29.39,28.62,15.9,57.13,31.47,90.23,36.74,71.29,11.36,141.42-.66,210.98-12.37,125.43-21.12,250.43-44.01,378.55-34.89,5.14.37,10.4-.79,15.18-1.2,4.42-13.09-2.57-15.64-12.43-15.92ZM4945.01,1802.35c3.04,4.32,5.87,8.83,3.91,17.61-22.87-1.23-41.29-11.96-59.86-21.48-24.18-12.39-48.07-19.69-76.38-14.86-33.99,5.8-39.84,1.57-52.11-32.31-9.94-27.44-26.88-44.21-55.27-51.71-18.63-4.92-37.63-10.96-57.15-29.89,19.7,5.65,33.22,9.65,46.8,13.39,21.23,5.85,42.35,12.24,64.85,6.05,4.93-1.36,11.1-1.69,15.77.03,65.56,24.07,127.56,53.64,169.43,113.18Z"/>
  <path d="M1667.1,362.02c-12.76,2.01-25.72,2.76-38.56,4.28-12.32,1.45-25.96,3.23-28.5,17.79-2.31,13.27,9.26,20.16,19.17,25.65,31.35,17.35,64.54,30.84,99.18,39.52,33.45,8.38,46.68-1.39,55.4-37.6,5.2.5,8.94.98,12.7,1.21,45.34,2.7,64.86-25.71,45.46-66.71-3.86-8.15-8.94-16.05-14.87-22.83-68.92-78.8-157.95-121.63-258.69-142.68-16.37-3.42-32.6.99-42.62,15.65-10.46,15.29-5.2,30.95,4.16,44.76,24.44,36.03,58.83,51.26,102.02,46.48,33.31-3.69,55.67,8,66.65,35.21,9,22.32,1.96,35.59-21.51,39.28ZM1705.67,318.98c-11.17-30.91-35.21-47.49-69.86-48.62-18.84-.62-37.77,3.79-56.52-3.28-20.02-7.55-36.42-19.01-46.79-37.8-10.47-18.98-3.37-31.4,17.93-31.95,6.79-.17,13.86.23,20.4,1.93,85.41,22.14,162.54,59.5,224.35,124.17,12.61,13.19,24.38,27.22,26.06,46.86,1.48,17.26-5.68,26.08-23.29,25.48-6.84-.23-13.67-.81-20.48-1.49-13.31-1.32-22.43,1.86-22.37,17.83.08,21.25-12.29,25.68-30.51,21.26-36.84-8.93-71.35-23.12-106.07-44.46,19.2-10.35,37.28-7.25,53.94-11.16,32.39-7.61,44.44-27.7,33.2-58.76Z"/>
  <path d="M1503.62,121.72c50.92,18.04,103.52,30.07,158.3,27.26,16.13-.82,31.59-5.25,45.79-12.69,52.03-27.24,96.41-66.06,145.92-97.15,2.51-1.57,4.57-4.06,6.39-6.47,3.43-4.53,4.5-9.67,1.85-14.93-2.76-5.49-7.87-7.43-13.44-6.25-44.17,9.33-87.92-4.06-125.12-2.12-31.95-.29-56.99.83-81.74,5.68-50.85,9.97-101.33,21.68-144.57,52.03-29.02,20.36-26.8,42.81,6.61,54.65ZM1530.16,67.02c72.1-31.36,146.69-48.01,226.07-39.33,24.4,2.67,49.33.42,74.02.42.56,2.29,1.11,4.57,1.67,6.86-48.55,26.16-87.06,67.31-138.47,89.09-19.14,8.11-39.52,11.71-60.22,9.15-38.42-4.75-76.6-11.22-113.64-22.8-9.02-2.82-19.24-5.19-24.39-16.34,7.71-13.89,21.28-21.1,34.96-27.05Z"/>
  <path d="M1062.25,255.17c34.09,12.87,68.41,25.29,103.17,36.18,57.4,17.99,114.22,12.58,169.93-8.14,10.69-3.97,22.87-9.37,22.04-22.99-.76-12.47-12.96-16.02-23.1-19.13-42.21-12.94-83.01-29.44-123.57-46.78-23.11-9.88-47.36-16.66-73-16.31-31.4.2-60.47,8.31-84.39,29.14-21.73,18.92-18.15,37.82,8.92,48.03ZM1158.52,196.16c16.95,3.67,33.84,8.98,49.72,15.92,41.49,18.14,83.71,34.21,133.61,48.06-105.75,50.65-194.36,10.12-283.83-26.73,16.32-29,60.92-45.82,100.5-37.25Z"/>
  <path d="M5274.31,2279.89c-10.35-9.36-19.4-7.86-24.31,6.01-2.01,5.67-3.22,11.75-3.92,17.75-4.56,39-23.07,67.45-58.59,86.35-34.35,18.28-65.05,42.16-88.47,73.96-6.81,9.25-13.42,20.04-5.9,31.38,8.2,12.36,21.28,13.18,34.74,9.98,29.28-6.97,56.4-19.16,78.85-39.07,20.44-18.13,41.01-35.94,62.25-53.17,21.21-17.2,34.58-40.21,35.28-67.39-1.47-26.82-10.98-48.67-29.91-65.81ZM5277.35,2375.34c-41.1,44.97-82.42,91.56-143.95,110.73-4.31,1.34-8.88,2.04-13.38,2.49-2.92.29-5.93-.43-10.78-.86.72-15.83,10.76-23.69,19.22-31.86,20.29-19.59,41.98-37.84,66.99-51.01,38.6-20.34,61.58-50.78,66.53-94.44.42-3.7,2.05-7.27,3.17-11.09,23.61,19.38,32.58,53.74,12.19,76.05Z"/>
  <path d="M3410.94,1855.24c-12.97-6.36-24.13,2.36-32.49,10.66-22.64,22.47-44.47,45.8-65.82,69.51-23.5,26.1-31.59,58.17-33.29,92.54,1.12,18.86,3.17,37.78,9.47,55.81,4.84,13.85,11.54,27.3,27.82,30.42,17.47,3.35,28.43-7.78,38.15-19.99,3.76-4.73,7.17-9.9,9.83-15.32,29.71-60.51,47.2-124.7,56.51-191.2,1.67-11.89,3.23-25.87-10.17-32.44ZM3341.77,2081.29c-4.97,8.23-11.76,18-22.96,15.86-10.08-1.93-12.38-13.07-14.69-21.55-13.32-48.94-9.92-94.96,26.45-134.16,22.01-23.72,41.88-49.66,71.3-67.68-5.44,73.74-21.65,143.95-60.11,207.54Z"/>
  <path d="M2528.51,702.85c9.32,2.55,16.16-3.27,21.62-9.73,22.48-26.6,37.24-55.58,26.22-91.81-3.78-12.42-2.5-23.48,11.6-27.48,14.52-4.12,17.33,7.12,20.83,17.78,6.91,21.06,18.17,40.06,30.16,58.58,8.45,13.06,17.79,26.41,3.72,40.92-14.05,14.49-31.2,19.03-50.78,14.27,1.02-16.9,19.31-16.84,23.91-33.68-20.74-6.94-29.88,7.76-38.61,19.11-7.86,10.22-6.19,21.51,5.84,29.35,15.7,10.22,49.41,3.76,67.64-13.05,18.16-16.73,21.65-33.97,9.1-55.04-14.78-24.81-29.56-49.29-39-76.98-7.46-21.88-32.74-26.15-50.34-11.1-13.9,11.89-14.85,26.6-10.08,42.35-38.38,10.9-54.61,39.23-45.32,77.04,2.01,8.2,4.12,16.9,13.49,19.47ZM2561.55,624.82c-.88,26.14-9.54,43.44-27.39,56.46-10.35-30.04-1.17-50.05,27.39-56.46Z"/>
  <path d="M1640.33,1276.92c-42.61-6.48-81.96-20.2-119.04-43.3-30.65-19.09-65.73-27.86-102.81-21.89-9.24,1.49-18.79,3.5-20.73,14.6-2,11.48,7.06,15.79,15.29,19.92,41.46,20.82,83.19,41.11,126.5,57.85,22.14,8.56,45.33,12.86,70.09,13.89,15.64-1.84,32.73-2.03,47.89-10.03,13.44-7.1,13.41-18.61.15-25.73-5.24-2.81-11.42-4.39-17.35-5.3ZM1420.02,1228.87c35.12-4.75,63.08,1.97,87.86,16.66,39.51,23.44,80.17,42.49,129.25,46.86-42.77,23.6-123.45-13.06-217.1-63.52Z"/>
  <path d="M4429.53,1514.87c-13.53-1.04-18.81,9.07-21.14,19.84-9.6,44.42-36.57,62.87-81.9,61.27-29.39-1.04-40.73,20.48-25.78,46.46,12.09,21.01,26.29,41.15,41.92,59.69,26.35,31.25,48.86,30.17,74.7-2.14,28.56-35.72,34.61-78.59,37.73-126.37-1.37-9.68-2.37-23.44-5.48-36.71-2.43-10.37-7.13-21.04-20.05-22.03ZM4402.96,1689.79c-17.89,22.46-28.63,22.89-47.2,1.99-15.12-17.03-29.53-34.81-40.12-55.02-6.85-13.07-5.12-25.55,13.17-24.53,52.14,2.91,83.16-21.15,95.64-71.02.46-1.83,2.76-3.2,5.13-5.81,9.29,11.6,7.22,24.75,7.56,36.94,1.21,42.71-6.79,83.05-34.19,117.44Z"/>
  <path d="M4573.89,1503.84c5.13-19.08,3.59-38.62-5.94-55.46-24.69-43.65-49.25-86.82-60-136.88-4.33-20.18-22.94-21.23-35.75-4.03-11.98,16.08-13.03,35.19-13.94,54.63,4,63.58,38.69,112.04,79.97,156.4,12.49,13.43,30.34,5.1,35.65-14.65ZM4487.89,1317.05c1.12.54,3.09.87,3.29,1.66,12.65,48.18,35.15,91.85,59.89,134.75,9.07,15.74,13.75,33.82,1.83,53.55-59.5-57.82-98.78-140.62-65.01-189.96Z"/>
  <path d="M2860.05,170.32c18.85,4.77,36.96.34,45.6-16.8,12.17-24.13,29.66-35.58,55.92-38.89,12.86-1.62,24.06-10.91,24.75-26.04.62-13.49-7.57-22.75-18.85-28.88-17.38-9.44-37.6-15.06-54.5-5.33-23.03,13.26-44.69,21.24-65.95,10.84-29.05-.39-43.36,11.1-43.39,31.24-.05,27.47,29.99,67.16,56.43,73.85ZM2842.25,81.46c5.33,1.02,11.75,1.14,17.2,3.48,17.45,7.51,32.25,3.77,46.49-7.88,15.87-12.98,33.34-13.45,51.11-3.8,5.34,2.9,11.18,6.43,10.75,13.48-.43,7.05-6.2,11.38-12.33,11.48-32.39.53-49.79,20.43-64.76,45.95-8.28,14.11-22.37,14.3-35.8,5.33-15.75-10.52-26.31-25.23-32.22-43.03-5.61-16.9,2.53-24.24,19.56-25.01Z"/>
  <path d="M3273.06,98.34c42.28-3.74,85.64-10.75,127.06-26.83,11.08-4.3,25.93-8.29,24.4-23.1-1.68-16.24-18.04-15.82-30.36-18.63-2.94-.67-6.04-.65-9.08-.77-42.21-1.63-83.49,3.93-123.26,18.06-15.93,5.66-37.67,10.7-32.66,33.69,4.68,21.52,26.02,16.04,43.91,17.58ZM3400.68,51.48c-48.49,21.1-99.03,30.97-152.2,26.25,29.82-26.01,102.3-38.1,152.2-26.25Z"/>
  <path d="M4438.4,161.89c46.42,23.93,95.92,32.56,147.79,23.24,11.86-2.13,22.61-8.72,23.61-21.45.98-12.49-10.79-17.39-20.33-21.85-28.07-13.14-58.18-16.45-88.69-17.23-20.78-.76-41.19,1.41-60.29,9.74-17.09,7.46-18.56,19.06-2.09,27.55ZM4592.4,166.72c-51.93,12.07-96.31.91-142.97-15.38,36.78-17.78,109-10.58,142.97,15.38Z"/>
  <path d="M2383.65,459.67c40.82-1.27,75.28-16.73,100.7-48.88,14.96-18.92,8.62-32.88-15.31-36.08-26.55-3.55-52.91.77-79.2,4.34-16.56,2.25-33.17,4.78-47.94,13.12-24.58,13.89-25.93,37.76-3.37,54.91,13.29,10.1,28.6,13.39,45.11,12.59ZM2340.36,422.55c-1.27-12.02,10.18-15.37,19.17-19.18,25.26-10.7,79.39-16.01,113.8-10.84-19.57,36.57-75.89,60.16-111.84,48.25-9.67-3.2-19.98-7.44-21.12-18.23Z"/>
  <path d="M4535.69,1609.42c-8.54-5.84-16.31-.01-22.73,4.92-25.69,19.76-39.06,46.05-39.73,82.37.69,3.84,1.73,11.37,3.46,18.74,2.42,10.31,4.02,22.71,16.96,24.27,14.6,1.76,18.42-11.2,22.69-21.63,11.58-28.25,18.92-57.64,23.38-87.86,1.16-7.84,3.41-15.72-4.03-20.81ZM4498.28,1716.15c-15.52-27.65-5.56-62.06,25.9-86.66-8.26,30.56-12.35,59.3-25.9,86.66Z"/>
  <path d="M4866.76,2371.63c-16.09,5.91-30.79,16.24-49.59,10.08-5.03-1.65-9.6,2.36-11.94,8.22-6.46,16.15,10.16,48.89,30.25,58.79,16.64,8.2,29.51,2.13,41.23-19.92,7.15-13.46,11.98-27.78,14.74-45.51-.17-16.34-11.9-16.35-24.68-11.65ZM4847.65,2433.93c-15.39,3.24-21.72-16.97-28.81-33.34,11.83-1.68,19.56,4.71,27.81-.57,6.82-4.37,13.1-10.54,24.76-10.79-4.58,17.83-4.87,40.73-23.75,44.7Z"/>
  <path d="M3419.91,885.38c-15.2-15.06-16.58-31.45-6.98-49.75,5.64-10.75,12.58-21.13,16.23-32.54,5.31-16.58,6.72-33.44-13.45-42.73-23.2-10.68-61.24-3.44-80.95,15.45-19.18,18.37-22.56,39.47-10.54,68.98,3.71,9.11,8.27,17.89,12.73,26.68,11.55,22.8,17.59,45.72,13.07,72.26-6.4,37.63,21.06,65.67,60.28,65.23,30.42-.34,48.94-22.32,46.17-54.64-2.42-28.17-17.28-49.84-36.56-68.94ZM3413.14,992.59c-21.27,2.69-42.55-11.64-46.38-31.53-.85-4.42-.54-9.07-.9-16.53,12.44-35.28-5.49-66.83-22.18-98.59-9.25-17.6-15.63-35.48-1.01-53.03,15.1-18.13,35.57-21.91,57.92-18.81,13.89,1.93,18.54,9.49,12.75,22.37-4.65,10.37-10.13,20.37-15.05,30.63-14.16,29.56-11.97,45.96,10.47,70.35,14.62,15.89,27.88,32.31,30.31,54.72,2.65,24.41-6.2,37.94-25.93,40.43Z"/>
</svg>